<?xml version="1.0" standalone="no"?>
 <!DOCTYPE svg PUBLIC "-//W3C//DTD SVG 1.1//EN" 
 "http://www.w3.org/Graphics/SVG/1.1/DTD/svg11.dtd"> 
<svg
  xmlns:svg="http://www.w3.org/2000/svg"
  xmlns="http://www.w3.org/2000/svg"
  xmlns:xlink="http://www.w3.org/1999/xlink"
  version="1.1"
  width="297.0022mm" height="210.0072mm" viewBox="0.0000 0.0000 297.0022 210.0072">
<title>SVG Image created as coupler-B_Mask.svg date 2025/04/19 12:20:35 </title>
  <desc>Image generated by PCBNEW </desc>
<g style="fill:#000000; fill-opacity:1.0000;stroke:#000000; stroke-opacity:1.0000;
stroke-linecap:round; stroke-linejoin:round;"
 transform="translate(0 0) scale(1 1)">
</g>
<g style="fill:#000000; fill-opacity:1.0000; stroke:none;">
<circle cx="184.0000" cy="118.2500" r="1.0000" /> 
<path style="fill:#000000; fill-opacity:1.0000; stroke:none;fill-rule:evenodd;"
d="M 191.8000,120.2500
191.8000,122.2500
189.8000,122.2500
189.8000,120.2500
Z" /> 
<path style="fill:#000000; fill-opacity:1.0000; stroke:none;fill-rule:evenodd;"
d="M 191.8000,114.2500
191.8000,116.2500
189.8000,116.2500
189.8000,114.2500
Z" /> 
<path style="fill:#000000; fill-opacity:1.0000; stroke:none;fill-rule:evenodd;"
d="M 189.8000,120.2500
189.8000,122.2500
187.8000,122.2500
187.8000,120.2500
Z" /> 
<path style="fill:#000000; fill-opacity:1.0000; stroke:none;fill-rule:evenodd;"
d="M 189.8000,114.2500
189.8000,116.2500
187.8000,116.2500
187.8000,114.2500
Z" /> 
<path style="fill:#000000; fill-opacity:1.0000; stroke:none;fill-rule:evenodd;"
d="M 187.8000,120.2500
187.8000,122.2500
185.8000,122.2500
185.8000,120.2500
Z" /> 
<path style="fill:#000000; fill-opacity:1.0000; stroke:none;fill-rule:evenodd;"
d="M 187.8000,114.2500
187.8000,116.2500
185.8000,116.2500
185.8000,114.2500
Z" /> 
</g>
<g style="fill:#000000; fill-opacity:1.0000; stroke:none;">
<circle cx="184.0000" cy="64.5000" r="1.0000" /> 
<path style="fill:#000000; fill-opacity:1.0000; stroke:none;fill-rule:evenodd;"
d="M 191.8000,66.5000
191.8000,68.5000
189.8000,68.5000
189.8000,66.5000
Z" /> 
<path style="fill:#000000; fill-opacity:1.0000; stroke:none;fill-rule:evenodd;"
d="M 191.8000,60.5000
191.8000,62.5000
189.8000,62.5000
189.8000,60.5000
Z" /> 
<path style="fill:#000000; fill-opacity:1.0000; stroke:none;fill-rule:evenodd;"
d="M 189.8000,66.5000
189.8000,68.5000
187.8000,68.5000
187.8000,66.5000
Z" /> 
<path style="fill:#000000; fill-opacity:1.0000; stroke:none;fill-rule:evenodd;"
d="M 189.8000,60.5000
189.8000,62.5000
187.8000,62.5000
187.8000,60.5000
Z" /> 
<path style="fill:#000000; fill-opacity:1.0000; stroke:none;fill-rule:evenodd;"
d="M 187.8000,66.5000
187.8000,68.5000
185.8000,68.5000
185.8000,66.5000
Z" /> 
<path style="fill:#000000; fill-opacity:1.0000; stroke:none;fill-rule:evenodd;"
d="M 187.8000,60.5000
187.8000,62.5000
185.8000,62.5000
185.8000,60.5000
Z" /> 
<path style="fill:#000000; fill-opacity:1.0000; stroke:none;fill-rule:evenodd;"
d="M 121.7000,64.9500
121.8517,64.9655
122.0170,65.0203
122.1652,65.1117
122.2883,65.2348
122.3797,65.3830
122.4345,65.5483
122.4500,65.7000
122.4500,69.2000
122.4345,69.3517
122.3797,69.5170
122.2883,69.6652
122.1652,69.7883
122.0170,69.8797
121.8517,69.9345
121.7000,69.9500
118.2000,69.9500
118.0483,69.9345
117.8830,69.8797
117.7348,69.7883
117.6117,69.6652
117.5203,69.5170
117.4655,69.3517
117.4500,69.2000
117.4500,65.7000
117.4655,65.5483
117.5203,65.3830
117.6117,65.2348
117.7348,65.1117
117.8830,65.0203
118.0483,64.9655
118.2000,64.9500
Z" /> 
<path style="fill:#000000; fill-opacity:1.0000; stroke:none;fill-rule:evenodd;"
d="M 130.9500,55.4500
133.4500,55.4500
133.4500,57.9500
130.9500,57.9500
Z" /> 
<path style="fill:#000000; fill-opacity:1.0000; stroke:none;fill-rule:evenodd;"
d="M 128.4500,55.4500
130.9500,55.4500
130.9500,57.9500
128.4500,57.9500
Z" /> 
<path style="fill:#000000; fill-opacity:1.0000; stroke:none;fill-rule:evenodd;"
d="M 108.9500,55.4500
111.4500,55.4500
111.4500,57.9500
108.9500,57.9500
Z" /> 
<path style="fill:#000000; fill-opacity:1.0000; stroke:none;fill-rule:evenodd;"
d="M 106.4500,55.4500
108.9500,55.4500
108.9500,57.9500
106.4500,57.9500
Z" /> 
<path style="fill:#000000; fill-opacity:1.0000; stroke:none;fill-rule:evenodd;"
d="M 130.9500,57.9500
133.4500,57.9500
133.4500,60.4500
130.9500,60.4500
Z" /> 
<path style="fill:#000000; fill-opacity:1.0000; stroke:none;fill-rule:evenodd;"
d="M 128.4500,57.9500
130.9500,57.9500
130.9500,60.4500
128.4500,60.4500
Z" /> 
<path style="fill:#000000; fill-opacity:1.0000; stroke:none;fill-rule:evenodd;"
d="M 108.9500,57.9500
111.4500,57.9500
111.4500,60.4500
108.9500,60.4500
Z" /> 
<path style="fill:#000000; fill-opacity:1.0000; stroke:none;fill-rule:evenodd;"
d="M 106.4500,57.9500
108.9500,57.9500
108.9500,60.4500
106.4500,60.4500
Z" /> 
<path style="fill:#000000; fill-opacity:1.0000; stroke:none;fill-rule:evenodd;"
d="M 130.9500,60.4500
133.4500,60.4500
133.4500,62.9500
130.9500,62.9500
Z" /> 
<path style="fill:#000000; fill-opacity:1.0000; stroke:none;fill-rule:evenodd;"
d="M 128.4500,60.4500
130.9500,60.4500
130.9500,62.9500
128.4500,62.9500
Z" /> 
<path style="fill:#000000; fill-opacity:1.0000; stroke:none;fill-rule:evenodd;"
d="M 108.9500,60.4500
111.4500,60.4500
111.4500,62.9500
108.9500,62.9500
Z" /> 
<path style="fill:#000000; fill-opacity:1.0000; stroke:none;fill-rule:evenodd;"
d="M 106.4500,60.4500
108.9500,60.4500
108.9500,62.9500
106.4500,62.9500
Z" /> 
<path style="fill:#000000; fill-opacity:1.0000; stroke:none;fill-rule:evenodd;"
d="M 130.9500,62.9500
133.4500,62.9500
133.4500,65.4500
130.9500,65.4500
Z" /> 
<path style="fill:#000000; fill-opacity:1.0000; stroke:none;fill-rule:evenodd;"
d="M 128.4500,62.9500
130.9500,62.9500
130.9500,65.4500
128.4500,65.4500
Z" /> 
<path style="fill:#000000; fill-opacity:1.0000; stroke:none;fill-rule:evenodd;"
d="M 108.9500,62.9500
111.4500,62.9500
111.4500,65.4500
108.9500,65.4500
Z" /> 
<path style="fill:#000000; fill-opacity:1.0000; stroke:none;fill-rule:evenodd;"
d="M 106.4500,62.9500
108.9500,62.9500
108.9500,65.4500
106.4500,65.4500
Z" /> 
<path style="fill:#000000; fill-opacity:1.0000; stroke:none;fill-rule:evenodd;"
d="M 118.2500,109.5000
118.0983,109.4845
117.9330,109.4297
117.7848,109.3383
117.6617,109.2152
117.5703,109.0670
117.5155,108.9017
117.5000,108.7500
117.5000,105.2500
117.5155,105.0983
117.5703,104.9330
117.6617,104.7848
117.7848,104.6617
117.9330,104.5703
118.0983,104.5155
118.2500,104.5000
121.7500,104.5000
121.9017,104.5155
122.0670,104.5703
122.2152,104.6617
122.3383,104.7848
122.4297,104.9330
122.4845,105.0983
122.5000,105.2500
122.5000,108.7500
122.4845,108.9017
122.4297,109.0670
122.3383,109.2152
122.2152,109.3383
122.0670,109.4297
121.9017,109.4845
121.7500,109.5000
Z" /> 
<path style="fill:#000000; fill-opacity:1.0000; stroke:none;fill-rule:evenodd;"
d="M 101.2500,102.5000
101.0983,102.4845
100.9330,102.4297
100.7848,102.3383
100.6617,102.2152
100.5703,102.0670
100.5155,101.9017
100.5000,101.7500
100.5000,98.2500
100.5155,98.0983
100.5703,97.9330
100.6617,97.7848
100.7848,97.6617
100.9330,97.5703
101.0983,97.5155
101.2500,97.5000
104.7500,97.5000
104.9017,97.5155
105.0670,97.5703
105.2152,97.6617
105.3383,97.7848
105.4297,97.9330
105.4845,98.0983
105.5000,98.2500
105.5000,101.7500
105.4845,101.9017
105.4297,102.0670
105.3383,102.2152
105.2152,102.3383
105.0670,102.4297
104.9017,102.4845
104.7500,102.5000
Z" /> 
<path style="fill:#000000; fill-opacity:1.0000; stroke:none;fill-rule:evenodd;"
d="M 135.6500,67.8000
135.4983,67.7845
135.3330,67.7297
135.1848,67.6383
135.0617,67.5152
134.9703,67.3670
134.9155,67.2017
134.9000,67.0500
134.9000,63.5500
134.9155,63.3983
134.9703,63.2330
135.0617,63.0848
135.1848,62.9617
135.3330,62.8703
135.4983,62.8155
135.6500,62.8000
139.1500,62.8000
139.3017,62.8155
139.4670,62.8703
139.6152,62.9617
139.7383,63.0848
139.8297,63.2330
139.8845,63.3983
139.9000,63.5500
139.9000,67.0500
139.8845,67.2017
139.8297,67.3670
139.7383,67.5152
139.6152,67.6383
139.4670,67.7297
139.3017,67.7845
139.1500,67.8000
Z" /> 
<path style="fill:#000000; fill-opacity:1.0000; stroke:none;fill-rule:evenodd;"
d="M 118.2500,75.5000
118.0983,75.4845
117.9330,75.4297
117.7848,75.3383
117.6617,75.2152
117.5703,75.0670
117.5155,74.9017
117.5000,74.7500
117.5000,71.2500
117.5155,71.0983
117.5703,70.9330
117.6617,70.7848
117.7848,70.6617
117.9330,70.5703
118.0983,70.5155
118.2500,70.5000
121.7500,70.5000
121.9017,70.5155
122.0670,70.5703
122.2152,70.6617
122.3383,70.7848
122.4297,70.9330
122.4845,71.0983
122.5000,71.2500
122.5000,74.7500
122.4845,74.9017
122.4297,75.0670
122.3383,75.2152
122.2152,75.3383
122.0670,75.4297
121.9017,75.4845
121.7500,75.5000
Z" /> 
<path style="fill:#000000; fill-opacity:1.0000; stroke:none;fill-rule:evenodd;"
d="M 117.5000,102.2500
115.0000,102.2500
115.0000,99.7500
117.5000,99.7500
Z" /> 
<path style="fill:#000000; fill-opacity:1.0000; stroke:none;fill-rule:evenodd;"
d="M 120.0000,102.2500
117.5000,102.2500
117.5000,99.7500
120.0000,99.7500
Z" /> 
<path style="fill:#000000; fill-opacity:1.0000; stroke:none;fill-rule:evenodd;"
d="M 122.5000,102.2500
120.0000,102.2500
120.0000,99.7500
122.5000,99.7500
Z" /> 
<path style="fill:#000000; fill-opacity:1.0000; stroke:none;fill-rule:evenodd;"
d="M 125.0000,102.2500
122.5000,102.2500
122.5000,99.7500
125.0000,99.7500
Z" /> 
<path style="fill:#000000; fill-opacity:1.0000; stroke:none;fill-rule:evenodd;"
d="M 117.5000,99.7500
115.0000,99.7500
115.0000,97.2500
117.5000,97.2500
Z" /> 
<path style="fill:#000000; fill-opacity:1.0000; stroke:none;fill-rule:evenodd;"
d="M 120.0000,99.7500
117.5000,99.7500
117.5000,97.2500
120.0000,97.2500
Z" /> 
<path style="fill:#000000; fill-opacity:1.0000; stroke:none;fill-rule:evenodd;"
d="M 122.5000,99.7500
120.0000,99.7500
120.0000,97.2500
122.5000,97.2500
Z" /> 
<path style="fill:#000000; fill-opacity:1.0000; stroke:none;fill-rule:evenodd;"
d="M 125.0000,99.7500
122.5000,99.7500
122.5000,97.2500
125.0000,97.2500
Z" /> 
<path style="fill:#000000; fill-opacity:1.0000; stroke:none;fill-rule:evenodd;"
d="M 165.0000,109.0000
164.8483,108.9845
164.6830,108.9297
164.5348,108.8383
164.4117,108.7152
164.3203,108.5670
164.2655,108.4017
164.2500,108.2500
164.2500,104.7500
164.2655,104.5983
164.3203,104.4330
164.4117,104.2848
164.5348,104.1617
164.6830,104.0703
164.8483,104.0155
165.0000,104.0000
168.5000,104.0000
168.6517,104.0155
168.8170,104.0703
168.9652,104.1617
169.0883,104.2848
169.1797,104.4330
169.2345,104.5983
169.2500,104.7500
169.2500,108.2500
169.2345,108.4017
169.1797,108.5670
169.0883,108.7152
168.9652,108.8383
168.8170,108.9297
168.6517,108.9845
168.5000,109.0000
Z" /> 
<path style="fill:#000000; fill-opacity:1.0000; stroke:none;fill-rule:evenodd;"
d="M 148.0000,102.0000
147.8483,101.9845
147.6830,101.9297
147.5348,101.8383
147.4117,101.7152
147.3203,101.5670
147.2655,101.4017
147.2500,101.2500
147.2500,97.7500
147.2655,97.5983
147.3203,97.4330
147.4117,97.2848
147.5348,97.1617
147.6830,97.0703
147.8483,97.0155
148.0000,97.0000
151.5000,97.0000
151.6517,97.0155
151.8170,97.0703
151.9652,97.1617
152.0883,97.2848
152.1797,97.4330
152.2345,97.5983
152.2500,97.7500
152.2500,101.2500
152.2345,101.4017
152.1797,101.5670
152.0883,101.7152
151.9652,101.8383
151.8170,101.9297
151.6517,101.9845
151.5000,102.0000
Z" /> 
<path style="fill:#000000; fill-opacity:1.0000; stroke:none;fill-rule:evenodd;"
d="M 182.0000,76.0000
181.8483,75.9845
181.6830,75.9297
181.5348,75.8383
181.4117,75.7152
181.3203,75.5670
181.2655,75.4017
181.2500,75.2500
181.2500,71.7500
181.2655,71.5983
181.3203,71.4330
181.4117,71.2848
181.5348,71.1617
181.6830,71.0703
181.8483,71.0155
182.0000,71.0000
185.5000,71.0000
185.6517,71.0155
185.8170,71.0703
185.9652,71.1617
186.0883,71.2848
186.1797,71.4330
186.2345,71.5983
186.2500,71.7500
186.2500,75.2500
186.2345,75.4017
186.1797,75.5670
186.0883,75.7152
185.9652,75.8383
185.8170,75.9297
185.6517,75.9845
185.5000,76.0000
Z" /> 
<path style="fill:#000000; fill-opacity:1.0000; stroke:none;fill-rule:evenodd;"
d="M 165.0000,75.0000
164.8483,74.9845
164.6830,74.9297
164.5348,74.8383
164.4117,74.7152
164.3203,74.5670
164.2655,74.4017
164.2500,74.2500
164.2500,70.7500
164.2655,70.5983
164.3203,70.4330
164.4117,70.2848
164.5348,70.1617
164.6830,70.0703
164.8483,70.0155
165.0000,70.0000
168.5000,70.0000
168.6517,70.0155
168.8170,70.0703
168.9652,70.1617
169.0883,70.2848
169.1797,70.4330
169.2345,70.5983
169.2500,70.7500
169.2500,74.2500
169.2345,74.4017
169.1797,74.5670
169.0883,74.7152
168.9652,74.8383
168.8170,74.9297
168.6517,74.9845
168.5000,75.0000
Z" /> 
<path style="fill:#000000; fill-opacity:1.0000; stroke:none;fill-rule:evenodd;"
d="M 164.2500,101.7500
161.7500,101.7500
161.7500,99.2500
164.2500,99.2500
Z" /> 
<path style="fill:#000000; fill-opacity:1.0000; stroke:none;fill-rule:evenodd;"
d="M 166.7500,101.7500
164.2500,101.7500
164.2500,99.2500
166.7500,99.2500
Z" /> 
<path style="fill:#000000; fill-opacity:1.0000; stroke:none;fill-rule:evenodd;"
d="M 169.2500,101.7500
166.7500,101.7500
166.7500,99.2500
169.2500,99.2500
Z" /> 
<path style="fill:#000000; fill-opacity:1.0000; stroke:none;fill-rule:evenodd;"
d="M 171.7500,101.7500
169.2500,101.7500
169.2500,99.2500
171.7500,99.2500
Z" /> 
<path style="fill:#000000; fill-opacity:1.0000; stroke:none;fill-rule:evenodd;"
d="M 164.2500,99.2500
161.7500,99.2500
161.7500,96.7500
164.2500,96.7500
Z" /> 
<path style="fill:#000000; fill-opacity:1.0000; stroke:none;fill-rule:evenodd;"
d="M 166.7500,99.2500
164.2500,99.2500
164.2500,96.7500
166.7500,96.7500
Z" /> 
<path style="fill:#000000; fill-opacity:1.0000; stroke:none;fill-rule:evenodd;"
d="M 169.2500,99.2500
166.7500,99.2500
166.7500,96.7500
169.2500,96.7500
Z" /> 
<path style="fill:#000000; fill-opacity:1.0000; stroke:none;fill-rule:evenodd;"
d="M 171.7500,99.2500
169.2500,99.2500
169.2500,96.7500
171.7500,96.7500
Z" /> 
<path style="fill:#000000; fill-opacity:1.0000; stroke:none;fill-rule:evenodd;"
d="M 118.2000,115.0500
118.0483,115.0345
117.8830,114.9797
117.7348,114.8883
117.6117,114.7652
117.5203,114.6170
117.4655,114.4517
117.4500,114.3000
117.4500,110.8000
117.4655,110.6483
117.5203,110.4830
117.6117,110.3348
117.7348,110.2117
117.8830,110.1203
118.0483,110.0655
118.2000,110.0500
121.7000,110.0500
121.8517,110.0655
122.0170,110.1203
122.1652,110.2117
122.2883,110.3348
122.3797,110.4830
122.4345,110.6483
122.4500,110.8000
122.4500,114.3000
122.4345,114.4517
122.3797,114.6170
122.2883,114.7652
122.1652,114.8883
122.0170,114.9797
121.8517,115.0345
121.7000,115.0500
Z" /> 
<path style="fill:#000000; fill-opacity:1.0000; stroke:none;fill-rule:evenodd;"
d="M 108.9500,124.5500
106.4500,124.5500
106.4500,122.0500
108.9500,122.0500
Z" /> 
<path style="fill:#000000; fill-opacity:1.0000; stroke:none;fill-rule:evenodd;"
d="M 111.4500,124.5500
108.9500,124.5500
108.9500,122.0500
111.4500,122.0500
Z" /> 
<path style="fill:#000000; fill-opacity:1.0000; stroke:none;fill-rule:evenodd;"
d="M 130.9500,124.5500
128.4500,124.5500
128.4500,122.0500
130.9500,122.0500
Z" /> 
<path style="fill:#000000; fill-opacity:1.0000; stroke:none;fill-rule:evenodd;"
d="M 133.4500,124.5500
130.9500,124.5500
130.9500,122.0500
133.4500,122.0500
Z" /> 
<path style="fill:#000000; fill-opacity:1.0000; stroke:none;fill-rule:evenodd;"
d="M 108.9500,122.0500
106.4500,122.0500
106.4500,119.5500
108.9500,119.5500
Z" /> 
<path style="fill:#000000; fill-opacity:1.0000; stroke:none;fill-rule:evenodd;"
d="M 111.4500,122.0500
108.9500,122.0500
108.9500,119.5500
111.4500,119.5500
Z" /> 
<path style="fill:#000000; fill-opacity:1.0000; stroke:none;fill-rule:evenodd;"
d="M 130.9500,122.0500
128.4500,122.0500
128.4500,119.5500
130.9500,119.5500
Z" /> 
<path style="fill:#000000; fill-opacity:1.0000; stroke:none;fill-rule:evenodd;"
d="M 133.4500,122.0500
130.9500,122.0500
130.9500,119.5500
133.4500,119.5500
Z" /> 
<path style="fill:#000000; fill-opacity:1.0000; stroke:none;fill-rule:evenodd;"
d="M 108.9500,119.5500
106.4500,119.5500
106.4500,117.0500
108.9500,117.0500
Z" /> 
<path style="fill:#000000; fill-opacity:1.0000; stroke:none;fill-rule:evenodd;"
d="M 111.4500,119.5500
108.9500,119.5500
108.9500,117.0500
111.4500,117.0500
Z" /> 
<path style="fill:#000000; fill-opacity:1.0000; stroke:none;fill-rule:evenodd;"
d="M 130.9500,119.5500
128.4500,119.5500
128.4500,117.0500
130.9500,117.0500
Z" /> 
<path style="fill:#000000; fill-opacity:1.0000; stroke:none;fill-rule:evenodd;"
d="M 133.4500,119.5500
130.9500,119.5500
130.9500,117.0500
133.4500,117.0500
Z" /> 
<path style="fill:#000000; fill-opacity:1.0000; stroke:none;fill-rule:evenodd;"
d="M 108.9500,117.0500
106.4500,117.0500
106.4500,114.5500
108.9500,114.5500
Z" /> 
<path style="fill:#000000; fill-opacity:1.0000; stroke:none;fill-rule:evenodd;"
d="M 111.4500,117.0500
108.9500,117.0500
108.9500,114.5500
111.4500,114.5500
Z" /> 
<path style="fill:#000000; fill-opacity:1.0000; stroke:none;fill-rule:evenodd;"
d="M 130.9500,117.0500
128.4500,117.0500
128.4500,114.5500
130.9500,114.5500
Z" /> 
<path style="fill:#000000; fill-opacity:1.0000; stroke:none;fill-rule:evenodd;"
d="M 133.4500,117.0500
130.9500,117.0500
130.9500,114.5500
133.4500,114.5500
Z" /> 
</g> 
</svg>
