<?xml version="1.0" standalone="no"?>
 <!DOCTYPE svg PUBLIC "-//W3C//DTD SVG 1.1//EN" 
 "http://www.w3.org/Graphics/SVG/1.1/DTD/svg11.dtd"> 
<svg
  xmlns:svg="http://www.w3.org/2000/svg"
  xmlns="http://www.w3.org/2000/svg"
  xmlns:xlink="http://www.w3.org/1999/xlink"
  version="1.1"
  width="297.0022mm" height="210.0072mm" viewBox="0.0000 0.0000 297.0022 210.0072">
<title>SVG Image created as coupler-Edge_Cuts.svg date 2025/04/19 12:20:35 </title>
  <desc>Image generated by PCBNEW </desc>
<g style="fill:#000000; fill-opacity:1.0000;stroke:#000000; stroke-opacity:1.0000;
stroke-linecap:round; stroke-linejoin:round;"
 transform="translate(0 0) scale(1 1)">
</g>
<g style="fill:none; 
stroke:#000000; stroke-width:0.1000; stroke-opacity:1; 
stroke-linecap:round; stroke-linejoin:round;">
<path d="M192.0000 55.0000
L192.0000 60.7000
" />
<path d="M192.0000 68.5000
L192.0000 114.4500
" />
<path d="M105.8000 125.0000
L94.0000 125.0000
" />
<path d="M134.1000 55.0000
L192.0000 55.0000
" />
<path d="M134.2000 125.0000
L192.0000 125.0000
" />
</g>
<g style="fill:none; 
stroke:#000000; stroke-width:0.0500; stroke-opacity:1; 
stroke-linecap:round; stroke-linejoin:round;">
<path d="M105.7000 55.0000
L94.0000 55.0000
" />
</g>
<g style="fill:none; 
stroke:#000000; stroke-width:0.1000; stroke-opacity:1; 
stroke-linecap:round; stroke-linejoin:round;">
<path d="M192.0000 122.2500
L192.0000 125.0000
" />
<path d="M94.0000 125.0000
L94.0000 55.0000
" />
</g>
<g style="fill:none; 
stroke:#000000; stroke-width:0.1200; stroke-opacity:1; 
stroke-linecap:round; stroke-linejoin:round;">
<path d="M185.8000 116.4500
L192.0000 116.4500
" />
<path d="M185.8000 120.0500
L185.8000 116.4500
" />
<path d="M192.0000 116.4500
L192.0000 114.4500
" />
<path d="M192.0000 120.0500
L185.8000 120.0500
" />
<path d="M192.0000 122.2500
L192.0000 120.0500
" />
<path d="M185.8000 62.7000
L192.0000 62.7000
" />
<path d="M185.8000 66.3000
L185.8000 62.7000
" />
<path d="M192.0000 62.7000
L192.0000 60.7000
" />
<path d="M192.0000 66.3000
L185.8000 66.3000
" />
<path d="M192.0000 68.5000
L192.0000 66.3000
" />
<path d="M111.9000 55.0000
L105.7000 55.0000
" />
<path d="M111.9000 64.2000
L111.9000 55.0000
" />
<path d="M127.9000 55.0000
L127.9000 64.2000
" />
<path d="M127.9000 64.2000
L111.9000 64.2000
" />
<path d="M134.1000 55.0000
L127.9000 55.0000
" />
<path style="fill:none; 
stroke:#000000; stroke-width:0.1000; stroke-opacity:1; 
stroke-linecap:round; stroke-linejoin:round;fill:none"
d="M 100.0000,97.0000
140.0000,97.0000
140.0000,77.0000
100.0000,77.0000
Z" /> 
<path style="fill:none; 
stroke:#000000; stroke-width:0.1000; stroke-opacity:1; 
stroke-linecap:round; stroke-linejoin:round;fill:none"
d="M 146.7500,96.5000
186.7500,96.5000
186.7500,76.5000
146.7500,76.5000
Z" /> 
</g>
<g style="fill:none; 
stroke:#000000; stroke-width:0.1200; stroke-opacity:1; 
stroke-linecap:round; stroke-linejoin:round;">
<path d="M105.8000 125.0000
L112.0000 125.0000
" />
<path d="M112.0000 115.8000
L128.0000 115.8000
" />
<path d="M112.0000 125.0000
L112.0000 115.8000
" />
<path d="M128.0000 115.8000
L128.0000 125.0000
" />
<path d="M128.0000 125.0000
L134.2000 125.0000
" />
</g> 
</svg>
