<?xml version="1.0" standalone="no"?>
 <!DOCTYPE svg PUBLIC "-//W3C//DTD SVG 1.1//EN" 
 "http://www.w3.org/Graphics/SVG/1.1/DTD/svg11.dtd"> 
<svg
  xmlns:svg="http://www.w3.org/2000/svg"
  xmlns="http://www.w3.org/2000/svg"
  xmlns:xlink="http://www.w3.org/1999/xlink"
  version="1.1"
  width="297.0022mm" height="210.0072mm" viewBox="0.0000 0.0000 297.0022 210.0072">
<title>SVG Image created as coupler-F_Silkscreen.svg date 2025/04/19 12:20:35 </title>
  <desc>Image generated by PCBNEW </desc>
<g style="fill:#000000; fill-opacity:1.0000;stroke:#000000; stroke-opacity:1.0000;
stroke-linecap:round; stroke-linejoin:round;"
 transform="translate(0 0) scale(1 1)">
</g>
<g style="fill:none; 
stroke:#000000; stroke-width:0.1500; stroke-opacity:1; 
stroke-linecap:round; stroke-linejoin:round;">
<text x="184.5000" y="57.0000"
textLength="6.0595" font-size="1.3333" lengthAdjust="spacingAndGlyphs"
text-anchor="start" opacity="0" stroke-opacity="0">-39 dB</text>
<g class="stroked-text"><desc>-39 dB</desc>
<path d="M184.8368 56.4889
L185.5987 56.4889
" />
<path d="M185.9796 55.8698
L186.5987 55.8698
" />
<path d="M186.5987 55.8698
L186.2653 56.2508
" />
<path d="M186.2653 56.2508
L186.4082 56.2508
" />
<path d="M186.4082 56.2508
L186.5034 56.2984
" />
<path d="M186.5034 56.2984
L186.5511 56.3460
" />
<path d="M186.5511 56.3460
L186.5987 56.4412
" />
<path d="M186.5987 56.4412
L186.5987 56.6793
" />
<path d="M186.5987 56.6793
L186.5511 56.7746
" />
<path d="M186.5511 56.7746
L186.5034 56.8222
" />
<path d="M186.5034 56.8222
L186.4082 56.8698
" />
<path d="M186.4082 56.8698
L186.1225 56.8698
" />
<path d="M186.1225 56.8698
L186.0273 56.8222
" />
<path d="M186.0273 56.8222
L185.9796 56.7746
" />
<path d="M187.0749 56.8698
L187.2653 56.8698
" />
<path d="M187.2653 56.8698
L187.3606 56.8222
" />
<path d="M187.3606 56.8222
L187.4082 56.7746
" />
<path d="M187.4082 56.7746
L187.5034 56.6317
" />
<path d="M187.5034 56.6317
L187.5511 56.4412
" />
<path d="M187.5511 56.4412
L187.5511 56.0603
" />
<path d="M187.5511 56.0603
L187.5034 55.9651
" />
<path d="M187.5034 55.9651
L187.4558 55.9174
" />
<path d="M187.4558 55.9174
L187.3606 55.8698
" />
<path d="M187.3606 55.8698
L187.1701 55.8698
" />
<path d="M187.1701 55.8698
L187.0749 55.9174
" />
<path d="M187.0749 55.9174
L187.0273 55.9651
" />
<path d="M187.0273 55.9651
L186.9796 56.0603
" />
<path d="M186.9796 56.0603
L186.9796 56.2984
" />
<path d="M186.9796 56.2984
L187.0273 56.3936
" />
<path d="M187.0273 56.3936
L187.0749 56.4412
" />
<path d="M187.0749 56.4412
L187.1701 56.4889
" />
<path d="M187.1701 56.4889
L187.3606 56.4889
" />
<path d="M187.3606 56.4889
L187.4558 56.4412
" />
<path d="M187.4558 56.4412
L187.5034 56.3936
" />
<path d="M187.5034 56.3936
L187.5511 56.2984
" />
<path d="M189.1701 56.8698
L189.1701 55.8698
" />
<path d="M189.1701 56.8222
L189.0749 56.8698
" />
<path d="M189.0749 56.8698
L188.8844 56.8698
" />
<path d="M188.8844 56.8698
L188.7892 56.8222
" />
<path d="M188.7892 56.8222
L188.7415 56.7746
" />
<path d="M188.7415 56.7746
L188.6939 56.6793
" />
<path d="M188.6939 56.6793
L188.6939 56.3936
" />
<path d="M188.6939 56.3936
L188.7415 56.2984
" />
<path d="M188.7415 56.2984
L188.7892 56.2508
" />
<path d="M188.7892 56.2508
L188.8844 56.2032
" />
<path d="M188.8844 56.2032
L189.0749 56.2032
" />
<path d="M189.0749 56.2032
L189.1701 56.2508
" />
<path d="M189.9796 56.3460
L190.1225 56.3936
" />
<path d="M190.1225 56.3936
L190.1701 56.4412
" />
<path d="M190.1701 56.4412
L190.2177 56.5365
" />
<path d="M190.2177 56.5365
L190.2177 56.6793
" />
<path d="M190.2177 56.6793
L190.1701 56.7746
" />
<path d="M190.1701 56.7746
L190.1225 56.8222
" />
<path d="M190.1225 56.8222
L190.0273 56.8698
" />
<path d="M190.0273 56.8698
L189.6463 56.8698
" />
<path d="M189.6463 56.8698
L189.6463 55.8698
" />
<path d="M189.6463 55.8698
L189.9796 55.8698
" />
<path d="M189.9796 55.8698
L190.0749 55.9174
" />
<path d="M190.0749 55.9174
L190.1225 55.9651
" />
<path d="M190.1225 55.9651
L190.1701 56.0603
" />
<path d="M190.1701 56.0603
L190.1701 56.1555
" />
<path d="M190.1701 56.1555
L190.1225 56.2508
" />
<path d="M190.1225 56.2508
L190.0749 56.2984
" />
<path d="M190.0749 56.2984
L189.9796 56.3460
" />
<path d="M189.9796 56.3460
L189.6463 56.3460
" />
</g><text x="177.5000" y="104.2500"
textLength="5.9643" font-size="1.3333" lengthAdjust="spacingAndGlyphs"
text-anchor="start" opacity="0" stroke-opacity="0">250320</text>
<g class="stroked-text"><desc>250320</desc>
<path d="M177.7892 103.2151
L177.8368 103.1674
" />
<path d="M177.8368 103.1674
L177.9320 103.1198
" />
<path d="M177.9320 103.1198
L178.1701 103.1198
" />
<path d="M178.1701 103.1198
L178.2653 103.1674
" />
<path d="M178.2653 103.1674
L178.3130 103.2151
" />
<path d="M178.3130 103.2151
L178.3606 103.3103
" />
<path d="M178.3606 103.3103
L178.3606 103.4055
" />
<path d="M178.3606 103.4055
L178.3130 103.5484
" />
<path d="M178.3130 103.5484
L177.7415 104.1198
" />
<path d="M177.7415 104.1198
L178.3606 104.1198
" />
<path d="M179.2653 103.1198
L178.7892 103.1198
" />
<path d="M178.7892 103.1198
L178.7415 103.5960
" />
<path d="M178.7415 103.5960
L178.7892 103.5484
" />
<path d="M178.7892 103.5484
L178.8844 103.5008
" />
<path d="M178.8844 103.5008
L179.1225 103.5008
" />
<path d="M179.1225 103.5008
L179.2177 103.5484
" />
<path d="M179.2177 103.5484
L179.2653 103.5960
" />
<path d="M179.2653 103.5960
L179.3130 103.6912
" />
<path d="M179.3130 103.6912
L179.3130 103.9293
" />
<path d="M179.3130 103.9293
L179.2653 104.0246
" />
<path d="M179.2653 104.0246
L179.2177 104.0722
" />
<path d="M179.2177 104.0722
L179.1225 104.1198
" />
<path d="M179.1225 104.1198
L178.8844 104.1198
" />
<path d="M178.8844 104.1198
L178.7892 104.0722
" />
<path d="M178.7892 104.0722
L178.7415 104.0246
" />
<path d="M179.9320 103.1198
L180.0273 103.1198
" />
<path d="M180.0273 103.1198
L180.1225 103.1674
" />
<path d="M180.1225 103.1674
L180.1701 103.2151
" />
<path d="M180.1701 103.2151
L180.2177 103.3103
" />
<path d="M180.2177 103.3103
L180.2653 103.5008
" />
<path d="M180.2653 103.5008
L180.2653 103.7389
" />
<path d="M180.2653 103.7389
L180.2177 103.9293
" />
<path d="M180.2177 103.9293
L180.1701 104.0246
" />
<path d="M180.1701 104.0246
L180.1225 104.0722
" />
<path d="M180.1225 104.0722
L180.0273 104.1198
" />
<path d="M180.0273 104.1198
L179.9320 104.1198
" />
<path d="M179.9320 104.1198
L179.8368 104.0722
" />
<path d="M179.8368 104.0722
L179.7892 104.0246
" />
<path d="M179.7892 104.0246
L179.7415 103.9293
" />
<path d="M179.7415 103.9293
L179.6939 103.7389
" />
<path d="M179.6939 103.7389
L179.6939 103.5008
" />
<path d="M179.6939 103.5008
L179.7415 103.3103
" />
<path d="M179.7415 103.3103
L179.7892 103.2151
" />
<path d="M179.7892 103.2151
L179.8368 103.1674
" />
<path d="M179.8368 103.1674
L179.9320 103.1198
" />
<path d="M180.5987 103.1198
L181.2177 103.1198
" />
<path d="M181.2177 103.1198
L180.8844 103.5008
" />
<path d="M180.8844 103.5008
L181.0273 103.5008
" />
<path d="M181.0273 103.5008
L181.1225 103.5484
" />
<path d="M181.1225 103.5484
L181.1701 103.5960
" />
<path d="M181.1701 103.5960
L181.2177 103.6912
" />
<path d="M181.2177 103.6912
L181.2177 103.9293
" />
<path d="M181.2177 103.9293
L181.1701 104.0246
" />
<path d="M181.1701 104.0246
L181.1225 104.0722
" />
<path d="M181.1225 104.0722
L181.0273 104.1198
" />
<path d="M181.0273 104.1198
L180.7415 104.1198
" />
<path d="M180.7415 104.1198
L180.6463 104.0722
" />
<path d="M180.6463 104.0722
L180.5987 104.0246
" />
<path d="M181.5987 103.2151
L181.6463 103.1674
" />
<path d="M181.6463 103.1674
L181.7415 103.1198
" />
<path d="M181.7415 103.1198
L181.9796 103.1198
" />
<path d="M181.9796 103.1198
L182.0749 103.1674
" />
<path d="M182.0749 103.1674
L182.1225 103.2151
" />
<path d="M182.1225 103.2151
L182.1701 103.3103
" />
<path d="M182.1701 103.3103
L182.1701 103.4055
" />
<path d="M182.1701 103.4055
L182.1225 103.5484
" />
<path d="M182.1225 103.5484
L181.5511 104.1198
" />
<path d="M181.5511 104.1198
L182.1701 104.1198
" />
<path d="M182.7892 103.1198
L182.8844 103.1198
" />
<path d="M182.8844 103.1198
L182.9796 103.1674
" />
<path d="M182.9796 103.1674
L183.0273 103.2151
" />
<path d="M183.0273 103.2151
L183.0749 103.3103
" />
<path d="M183.0749 103.3103
L183.1225 103.5008
" />
<path d="M183.1225 103.5008
L183.1225 103.7389
" />
<path d="M183.1225 103.7389
L183.0749 103.9293
" />
<path d="M183.0749 103.9293
L183.0273 104.0246
" />
<path d="M183.0273 104.0246
L182.9796 104.0722
" />
<path d="M182.9796 104.0722
L182.8844 104.1198
" />
<path d="M182.8844 104.1198
L182.7892 104.1198
" />
<path d="M182.7892 104.1198
L182.6939 104.0722
" />
<path d="M182.6939 104.0722
L182.6463 104.0246
" />
<path d="M182.6463 104.0246
L182.5987 103.9293
" />
<path d="M182.5987 103.9293
L182.5511 103.7389
" />
<path d="M182.5511 103.7389
L182.5511 103.5008
" />
<path d="M182.5511 103.5008
L182.5987 103.3103
" />
<path d="M182.5987 103.3103
L182.6463 103.2151
" />
<path d="M182.6463 103.2151
L182.6939 103.1674
" />
<path d="M182.6939 103.1674
L182.7892 103.1198
" />
</g><text x="185.0000" y="112.0000"
textLength="6.0595" font-size="1.3333" lengthAdjust="spacingAndGlyphs"
text-anchor="start" opacity="0" stroke-opacity="0">-39 dB</text>
<g class="stroked-text"><desc>-39 dB</desc>
<path d="M185.3368 111.4889
L186.0987 111.4889
" />
<path d="M186.4796 110.8698
L187.0987 110.8698
" />
<path d="M187.0987 110.8698
L186.7653 111.2508
" />
<path d="M186.7653 111.2508
L186.9082 111.2508
" />
<path d="M186.9082 111.2508
L187.0034 111.2984
" />
<path d="M187.0034 111.2984
L187.0511 111.3460
" />
<path d="M187.0511 111.3460
L187.0987 111.4412
" />
<path d="M187.0987 111.4412
L187.0987 111.6793
" />
<path d="M187.0987 111.6793
L187.0511 111.7746
" />
<path d="M187.0511 111.7746
L187.0034 111.8222
" />
<path d="M187.0034 111.8222
L186.9082 111.8698
" />
<path d="M186.9082 111.8698
L186.6225 111.8698
" />
<path d="M186.6225 111.8698
L186.5273 111.8222
" />
<path d="M186.5273 111.8222
L186.4796 111.7746
" />
<path d="M187.5749 111.8698
L187.7653 111.8698
" />
<path d="M187.7653 111.8698
L187.8606 111.8222
" />
<path d="M187.8606 111.8222
L187.9082 111.7746
" />
<path d="M187.9082 111.7746
L188.0034 111.6317
" />
<path d="M188.0034 111.6317
L188.0511 111.4412
" />
<path d="M188.0511 111.4412
L188.0511 111.0603
" />
<path d="M188.0511 111.0603
L188.0034 110.9651
" />
<path d="M188.0034 110.9651
L187.9558 110.9174
" />
<path d="M187.9558 110.9174
L187.8606 110.8698
" />
<path d="M187.8606 110.8698
L187.6701 110.8698
" />
<path d="M187.6701 110.8698
L187.5749 110.9174
" />
<path d="M187.5749 110.9174
L187.5273 110.9651
" />
<path d="M187.5273 110.9651
L187.4796 111.0603
" />
<path d="M187.4796 111.0603
L187.4796 111.2984
" />
<path d="M187.4796 111.2984
L187.5273 111.3936
" />
<path d="M187.5273 111.3936
L187.5749 111.4412
" />
<path d="M187.5749 111.4412
L187.6701 111.4889
" />
<path d="M187.6701 111.4889
L187.8606 111.4889
" />
<path d="M187.8606 111.4889
L187.9558 111.4412
" />
<path d="M187.9558 111.4412
L188.0034 111.3936
" />
<path d="M188.0034 111.3936
L188.0511 111.2984
" />
<path d="M189.6701 111.8698
L189.6701 110.8698
" />
<path d="M189.6701 111.8222
L189.5749 111.8698
" />
<path d="M189.5749 111.8698
L189.3844 111.8698
" />
<path d="M189.3844 111.8698
L189.2892 111.8222
" />
<path d="M189.2892 111.8222
L189.2415 111.7746
" />
<path d="M189.2415 111.7746
L189.1939 111.6793
" />
<path d="M189.1939 111.6793
L189.1939 111.3936
" />
<path d="M189.1939 111.3936
L189.2415 111.2984
" />
<path d="M189.2415 111.2984
L189.2892 111.2508
" />
<path d="M189.2892 111.2508
L189.3844 111.2032
" />
<path d="M189.3844 111.2032
L189.5749 111.2032
" />
<path d="M189.5749 111.2032
L189.6701 111.2508
" />
<path d="M190.4796 111.3460
L190.6225 111.3936
" />
<path d="M190.6225 111.3936
L190.6701 111.4412
" />
<path d="M190.6701 111.4412
L190.7177 111.5365
" />
<path d="M190.7177 111.5365
L190.7177 111.6793
" />
<path d="M190.7177 111.6793
L190.6701 111.7746
" />
<path d="M190.6701 111.7746
L190.6225 111.8222
" />
<path d="M190.6225 111.8222
L190.5273 111.8698
" />
<path d="M190.5273 111.8698
L190.1463 111.8698
" />
<path d="M190.1463 111.8698
L190.1463 110.8698
" />
<path d="M190.1463 110.8698
L190.4796 110.8698
" />
<path d="M190.4796 110.8698
L190.5749 110.9174
" />
<path d="M190.5749 110.9174
L190.6225 110.9651
" />
<path d="M190.6225 110.9651
L190.6701 111.0603
" />
<path d="M190.6701 111.0603
L190.6701 111.1555
" />
<path d="M190.6701 111.1555
L190.6225 111.2508
" />
<path d="M190.6225 111.2508
L190.5749 111.2984
" />
<path d="M190.5749 111.2984
L190.4796 111.3460
" />
<path d="M190.4796 111.3460
L190.1463 111.3460
" />
</g><text x="183.8500" y="116.3500"
textLength="1.9643" font-size="1.3333" lengthAdjust="spacingAndGlyphs"
text-anchor="middle" opacity="0" stroke-opacity="0">J4</text>
<g class="stroked-text"><desc>J4</desc>
<path d="M183.5167 115.3048
L183.5167 116.0191
" />
<path d="M183.5167 116.0191
L183.4690 116.1620
" />
<path d="M183.4690 116.1620
L183.3738 116.2572
" />
<path d="M183.3738 116.2572
L183.2310 116.3048
" />
<path d="M183.2310 116.3048
L183.1357 116.3048
" />
<path d="M184.4214 115.6382
L184.4214 116.3048
" />
<path d="M184.1833 115.2572
L183.9452 115.9715
" />
<path d="M183.9452 115.9715
L184.5643 115.9715
" />
</g><text x="187.0000" y="114.0000"
textLength="3.0119" font-size="1.3333" lengthAdjust="spacingAndGlyphs"
text-anchor="middle" opacity="0" stroke-opacity="0">REF</text>
<g class="stroked-text"><desc>REF</desc>
<path d="M186.4286 113.9548
L186.0952 113.4786
" />
<path d="M185.8571 113.9548
L185.8571 112.9548
" />
<path d="M185.8571 112.9548
L186.2381 112.9548
" />
<path d="M186.2381 112.9548
L186.3333 113.0024
" />
<path d="M186.3333 113.0024
L186.3810 113.0501
" />
<path d="M186.3810 113.0501
L186.4286 113.1453
" />
<path d="M186.4286 113.1453
L186.4286 113.2882
" />
<path d="M186.4286 113.2882
L186.3810 113.3834
" />
<path d="M186.3810 113.3834
L186.3333 113.4310
" />
<path d="M186.3333 113.4310
L186.2381 113.4786
" />
<path d="M186.2381 113.4786
L185.8571 113.4786
" />
<path d="M186.8571 113.4310
L187.1905 113.4310
" />
<path d="M187.3333 113.9548
L186.8571 113.9548
" />
<path d="M186.8571 113.9548
L186.8571 112.9548
" />
<path d="M186.8571 112.9548
L187.3333 112.9548
" />
<path d="M188.0952 113.4310
L187.7619 113.4310
" />
<path d="M187.7619 113.9548
L187.7619 112.9548
" />
<path d="M187.7619 112.9548
L188.2381 112.9548
" />
</g><text x="183.8500" y="62.1500"
textLength="1.9643" font-size="1.3333" lengthAdjust="spacingAndGlyphs"
text-anchor="middle" opacity="0" stroke-opacity="0">J3</text>
<g class="stroked-text"><desc>J3</desc>
<path d="M183.5167 61.1048
L183.5167 61.8191
" />
<path d="M183.5167 61.8191
L183.4690 61.9620
" />
<path d="M183.4690 61.9620
L183.3738 62.0572
" />
<path d="M183.3738 62.0572
L183.2310 62.1048
" />
<path d="M183.2310 62.1048
L183.1357 62.1048
" />
<path d="M183.8976 61.1048
L184.5167 61.1048
" />
<path d="M184.5167 61.1048
L184.1833 61.4858
" />
<path d="M184.1833 61.4858
L184.3262 61.4858
" />
<path d="M184.3262 61.4858
L184.4214 61.5334
" />
<path d="M184.4214 61.5334
L184.4690 61.5810
" />
<path d="M184.4690 61.5810
L184.5167 61.6762
" />
<path d="M184.5167 61.6762
L184.5167 61.9143
" />
<path d="M184.5167 61.9143
L184.4690 62.0096
" />
<path d="M184.4690 62.0096
L184.4214 62.0572
" />
<path d="M184.4214 62.0572
L184.3262 62.1048
" />
<path d="M184.3262 62.1048
L184.0405 62.1048
" />
<path d="M184.0405 62.1048
L183.9452 62.0572
" />
<path d="M183.9452 62.0572
L183.8976 62.0096
" />
</g><text x="186.5000" y="59.5000"
textLength="3.2500" font-size="1.3333" lengthAdjust="spacingAndGlyphs"
text-anchor="middle" opacity="0" stroke-opacity="0">FWD</text>
<g class="stroked-text"><desc>FWD</desc>
<path d="M185.5714 58.9310
L185.2381 58.9310
" />
<path d="M185.2381 59.4548
L185.2381 58.4548
" />
<path d="M185.2381 58.4548
L185.7143 58.4548
" />
<path d="M186.0000 58.4548
L186.2381 59.4548
" />
<path d="M186.2381 59.4548
L186.4286 58.7405
" />
<path d="M186.4286 58.7405
L186.6190 59.4548
" />
<path d="M186.6190 59.4548
L186.8571 58.4548
" />
<path d="M187.2381 59.4548
L187.2381 58.4548
" />
<path d="M187.2381 58.4548
L187.4762 58.4548
" />
<path d="M187.4762 58.4548
L187.6190 58.5024
" />
<path d="M187.6190 58.5024
L187.7143 58.5977
" />
<path d="M187.7143 58.5977
L187.7619 58.6929
" />
<path d="M187.7619 58.6929
L187.8095 58.8834
" />
<path d="M187.8095 58.8834
L187.8095 59.0262
" />
<path d="M187.8095 59.0262
L187.7619 59.2167
" />
<path d="M187.7619 59.2167
L187.7143 59.3120
" />
<path d="M187.7143 59.3120
L187.6190 59.4072
" />
<path d="M187.6190 59.4072
L187.4762 59.4548
" />
<path d="M187.4762 59.4548
L187.2381 59.4548
" />
</g><g transform="rotate(-90.000000 159.5000 57.0000)">
<text x="159.5000" y="57.5000"
textLength="2.2024" font-size="1.3333" lengthAdjust="spacingAndGlyphs"
text-anchor="middle" opacity="0" stroke-opacity="0">R6</text>
</g>
<g class="stroked-text"><desc>R6</desc>
<path d="M159.9548 57.1667
L159.4786 57.5000
" />
<path d="M159.9548 57.7381
L158.9548 57.7381
" />
<path d="M158.9548 57.7381
L158.9548 57.3571
" />
<path d="M158.9548 57.3571
L159.0024 57.2619
" />
<path d="M159.0024 57.2619
L159.0501 57.2143
" />
<path d="M159.0501 57.2143
L159.1453 57.1667
" />
<path d="M159.1453 57.1667
L159.2882 57.1667
" />
<path d="M159.2882 57.1667
L159.3834 57.2143
" />
<path d="M159.3834 57.2143
L159.4310 57.2619
" />
<path d="M159.4310 57.2619
L159.4786 57.3571
" />
<path d="M159.4786 57.3571
L159.4786 57.7381
" />
<path d="M158.9548 56.3095
L158.9548 56.5000
" />
<path d="M158.9548 56.5000
L159.0024 56.5952
" />
<path d="M159.0024 56.5952
L159.0501 56.6429
" />
<path d="M159.0501 56.6429
L159.1929 56.7381
" />
<path d="M159.1929 56.7381
L159.3834 56.7857
" />
<path d="M159.3834 56.7857
L159.7643 56.7857
" />
<path d="M159.7643 56.7857
L159.8596 56.7381
" />
<path d="M159.8596 56.7381
L159.9072 56.6905
" />
<path d="M159.9072 56.6905
L159.9548 56.5952
" />
<path d="M159.9548 56.5952
L159.9548 56.4048
" />
<path d="M159.9548 56.4048
L159.9072 56.3095
" />
<path d="M159.9072 56.3095
L159.8596 56.2619
" />
<path d="M159.8596 56.2619
L159.7643 56.2143
" />
<path d="M159.7643 56.2143
L159.5262 56.2143
" />
<path d="M159.5262 56.2143
L159.4310 56.2619
" />
<path d="M159.4310 56.2619
L159.3834 56.3095
" />
<path d="M159.3834 56.3095
L159.3358 56.4048
" />
<path d="M159.3358 56.4048
L159.3358 56.5952
" />
<path d="M159.3358 56.5952
L159.3834 56.6905
" />
<path d="M159.3834 56.6905
L159.4310 56.7381
" />
<path d="M159.4310 56.7381
L159.5262 56.7857
" />
</g><g transform="rotate(-90.000000 104.0000 63.5000)">
<text x="104.0000" y="64.0000"
textLength="1.9643" font-size="1.3333" lengthAdjust="spacingAndGlyphs"
text-anchor="middle" opacity="0" stroke-opacity="0">J2</text>
</g>
<g class="stroked-text"><desc>J2</desc>
<path d="M103.4548 63.8333
L104.1691 63.8333
" />
<path d="M104.1691 63.8333
L104.3120 63.8810
" />
<path d="M104.3120 63.8810
L104.4072 63.9762
" />
<path d="M104.4072 63.9762
L104.4548 64.1190
" />
<path d="M104.4548 64.1190
L104.4548 64.2143
" />
<path d="M103.5501 63.4048
L103.5024 63.3571
" />
<path d="M103.5024 63.3571
L103.4548 63.2619
" />
<path d="M103.4548 63.2619
L103.4548 63.0238
" />
<path d="M103.4548 63.0238
L103.5024 62.9286
" />
<path d="M103.5024 62.9286
L103.5501 62.8810
" />
<path d="M103.5501 62.8810
L103.6453 62.8333
" />
<path d="M103.6453 62.8333
L103.7405 62.8333
" />
<path d="M103.7405 62.8333
L103.8834 62.8810
" />
<path d="M103.8834 62.8810
L104.4548 63.4524
" />
<path d="M104.4548 63.4524
L104.4548 62.8333
" />
</g><g transform="rotate(-90.000000 104.0000 59.5000)">
<text x="104.0000" y="60.0000"
textLength="2.9167" font-size="1.3333" lengthAdjust="spacingAndGlyphs"
text-anchor="middle" opacity="0" stroke-opacity="0">ANT</text>
</g>
<g class="stroked-text"><desc>ANT</desc>
<path d="M104.1691 60.6429
L104.1691 60.1667
" />
<path d="M104.4548 60.7381
L103.4548 60.4048
" />
<path d="M103.4548 60.4048
L104.4548 60.0714
" />
<path d="M104.4548 59.7381
L103.4548 59.7381
" />
<path d="M103.4548 59.7381
L104.4548 59.1667
" />
<path d="M104.4548 59.1667
L103.4548 59.1667
" />
<path d="M103.4548 58.8333
L103.4548 58.2619
" />
<path d="M104.4548 58.5476
L103.4548 58.5476
" />
</g><g transform="rotate(-90.000000 160.0000 121.9000)">
<text x="160.0000" y="122.4000"
textLength="2.2024" font-size="1.3333" lengthAdjust="spacingAndGlyphs"
text-anchor="middle" opacity="0" stroke-opacity="0">R9</text>
</g>
<g class="stroked-text"><desc>R9</desc>
<path d="M160.4548 122.0667
L159.9786 122.4000
" />
<path d="M160.4548 122.6381
L159.4548 122.6381
" />
<path d="M159.4548 122.6381
L159.4548 122.2571
" />
<path d="M159.4548 122.2571
L159.5024 122.1619
" />
<path d="M159.5024 122.1619
L159.5501 122.1143
" />
<path d="M159.5501 122.1143
L159.6453 122.0667
" />
<path d="M159.6453 122.0667
L159.7882 122.0667
" />
<path d="M159.7882 122.0667
L159.8834 122.1143
" />
<path d="M159.8834 122.1143
L159.9310 122.1619
" />
<path d="M159.9310 122.1619
L159.9786 122.2571
" />
<path d="M159.9786 122.2571
L159.9786 122.6381
" />
<path d="M160.4548 121.5905
L160.4548 121.4000
" />
<path d="M160.4548 121.4000
L160.4072 121.3048
" />
<path d="M160.4072 121.3048
L160.3596 121.2571
" />
<path d="M160.3596 121.2571
L160.2167 121.1619
" />
<path d="M160.2167 121.1619
L160.0262 121.1143
" />
<path d="M160.0262 121.1143
L159.6453 121.1143
" />
<path d="M159.6453 121.1143
L159.5501 121.1619
" />
<path d="M159.5501 121.1619
L159.5024 121.2095
" />
<path d="M159.5024 121.2095
L159.4548 121.3048
" />
<path d="M159.4548 121.3048
L159.4548 121.4952
" />
<path d="M159.4548 121.4952
L159.5024 121.5905
" />
<path d="M159.5024 121.5905
L159.5501 121.6381
" />
<path d="M159.5501 121.6381
L159.6453 121.6857
" />
<path d="M159.6453 121.6857
L159.8834 121.6857
" />
<path d="M159.8834 121.6857
L159.9786 121.6381
" />
<path d="M159.9786 121.6381
L160.0262 121.5905
" />
<path d="M160.0262 121.5905
L160.0739 121.4952
" />
<path d="M160.0739 121.4952
L160.0739 121.3048
" />
<path d="M160.0739 121.3048
L160.0262 121.2095
" />
<path d="M160.0262 121.2095
L159.9786 121.1619
" />
<path d="M159.9786 121.1619
L159.8834 121.1143
" />
</g><text x="170.7000" y="111.7500"
textLength="2.2024" font-size="1.3333" lengthAdjust="spacingAndGlyphs"
text-anchor="middle" opacity="0" stroke-opacity="0">R4</text>
<g class="stroked-text"><desc>R4</desc>
<path d="M170.5333 111.7048
L170.2000 111.2286
" />
<path d="M169.9619 111.7048
L169.9619 110.7048
" />
<path d="M169.9619 110.7048
L170.3429 110.7048
" />
<path d="M170.3429 110.7048
L170.4381 110.7524
" />
<path d="M170.4381 110.7524
L170.4857 110.8001
" />
<path d="M170.4857 110.8001
L170.5333 110.8953
" />
<path d="M170.5333 110.8953
L170.5333 111.0382
" />
<path d="M170.5333 111.0382
L170.4857 111.1334
" />
<path d="M170.4857 111.1334
L170.4381 111.1810
" />
<path d="M170.4381 111.1810
L170.3429 111.2286
" />
<path d="M170.3429 111.2286
L169.9619 111.2286
" />
<path d="M171.3905 111.0382
L171.3905 111.7048
" />
<path d="M171.1524 110.6572
L170.9143 111.3715
" />
<path d="M170.9143 111.3715
L171.5333 111.3715
" />
</g><g transform="rotate(-90.000000 156.0000 121.9000)">
<text x="156.0000" y="122.4000"
textLength="3.1548" font-size="1.3333" lengthAdjust="spacingAndGlyphs"
text-anchor="middle" opacity="0" stroke-opacity="0">R10</text>
</g>
<g class="stroked-text"><desc>R10</desc>
<path d="M156.4548 122.5429
L155.9786 122.8762
" />
<path d="M156.4548 123.1143
L155.4548 123.1143
" />
<path d="M155.4548 123.1143
L155.4548 122.7333
" />
<path d="M155.4548 122.7333
L155.5024 122.6381
" />
<path d="M155.5024 122.6381
L155.5501 122.5905
" />
<path d="M155.5501 122.5905
L155.6453 122.5429
" />
<path d="M155.6453 122.5429
L155.7882 122.5429
" />
<path d="M155.7882 122.5429
L155.8834 122.5905
" />
<path d="M155.8834 122.5905
L155.9310 122.6381
" />
<path d="M155.9310 122.6381
L155.9786 122.7333
" />
<path d="M155.9786 122.7333
L155.9786 123.1143
" />
<path d="M156.4548 121.5905
L156.4548 122.1619
" />
<path d="M156.4548 121.8762
L155.4548 121.8762
" />
<path d="M155.4548 121.8762
L155.5977 121.9714
" />
<path d="M155.5977 121.9714
L155.6929 122.0667
" />
<path d="M155.6929 122.0667
L155.7405 122.1619
" />
<path d="M155.4548 120.9714
L155.4548 120.8762
" />
<path d="M155.4548 120.8762
L155.5024 120.7810
" />
<path d="M155.5024 120.7810
L155.5501 120.7333
" />
<path d="M155.5501 120.7333
L155.6453 120.6857
" />
<path d="M155.6453 120.6857
L155.8358 120.6381
" />
<path d="M155.8358 120.6381
L156.0739 120.6381
" />
<path d="M156.0739 120.6381
L156.2643 120.6857
" />
<path d="M156.2643 120.6857
L156.3596 120.7333
" />
<path d="M156.3596 120.7333
L156.4072 120.7810
" />
<path d="M156.4072 120.7810
L156.4548 120.8762
" />
<path d="M156.4548 120.8762
L156.4548 120.9714
" />
<path d="M156.4548 120.9714
L156.4072 121.0667
" />
<path d="M156.4072 121.0667
L156.3596 121.1143
" />
<path d="M156.3596 121.1143
L156.2643 121.1619
" />
<path d="M156.2643 121.1619
L156.0739 121.2095
" />
<path d="M156.0739 121.2095
L155.8358 121.2095
" />
<path d="M155.8358 121.2095
L155.6453 121.1619
" />
<path d="M155.6453 121.1619
L155.5501 121.1143
" />
<path d="M155.5501 121.1143
L155.5024 121.0667
" />
<path d="M155.5024 121.0667
L155.4548 120.9714
" />
</g><g transform="rotate(-90.000000 178.5000 121.5000)">
<text x="178.5000" y="122.0000"
textLength="3.1548" font-size="1.3333" lengthAdjust="spacingAndGlyphs"
text-anchor="middle" opacity="0" stroke-opacity="0">R12</text>
</g>
<g class="stroked-text"><desc>R12</desc>
<path d="M178.9548 122.1429
L178.4786 122.4762
" />
<path d="M178.9548 122.7143
L177.9548 122.7143
" />
<path d="M177.9548 122.7143
L177.9548 122.3333
" />
<path d="M177.9548 122.3333
L178.0024 122.2381
" />
<path d="M178.0024 122.2381
L178.0501 122.1905
" />
<path d="M178.0501 122.1905
L178.1453 122.1429
" />
<path d="M178.1453 122.1429
L178.2882 122.1429
" />
<path d="M178.2882 122.1429
L178.3834 122.1905
" />
<path d="M178.3834 122.1905
L178.4310 122.2381
" />
<path d="M178.4310 122.2381
L178.4786 122.3333
" />
<path d="M178.4786 122.3333
L178.4786 122.7143
" />
<path d="M178.9548 121.1905
L178.9548 121.7619
" />
<path d="M178.9548 121.4762
L177.9548 121.4762
" />
<path d="M177.9548 121.4762
L178.0977 121.5714
" />
<path d="M178.0977 121.5714
L178.1929 121.6667
" />
<path d="M178.1929 121.6667
L178.2405 121.7619
" />
<path d="M178.0501 120.8095
L178.0024 120.7619
" />
<path d="M178.0024 120.7619
L177.9548 120.6667
" />
<path d="M177.9548 120.6667
L177.9548 120.4286
" />
<path d="M177.9548 120.4286
L178.0024 120.3333
" />
<path d="M178.0024 120.3333
L178.0501 120.2857
" />
<path d="M178.0501 120.2857
L178.1453 120.2381
" />
<path d="M178.1453 120.2381
L178.2405 120.2381
" />
<path d="M178.2405 120.2381
L178.3834 120.2857
" />
<path d="M178.3834 120.2857
L178.9548 120.8571
" />
<path d="M178.9548 120.8571
L178.9548 120.2381
" />
</g><g transform="rotate(-90.000000 98.0000 87.0000)">
<text x="98.0000" y="87.5000"
textLength="2.2500" font-size="1.3333" lengthAdjust="spacingAndGlyphs"
text-anchor="middle" opacity="0" stroke-opacity="0">U1</text>
</g>
<g class="stroked-text"><desc>U1</desc>
<path d="M97.4548 87.7619
L98.2643 87.7619
" />
<path d="M98.2643 87.7619
L98.3596 87.7143
" />
<path d="M98.3596 87.7143
L98.4072 87.6667
" />
<path d="M98.4072 87.6667
L98.4548 87.5714
" />
<path d="M98.4548 87.5714
L98.4548 87.3810
" />
<path d="M98.4548 87.3810
L98.4072 87.2857
" />
<path d="M98.4072 87.2857
L98.3596 87.2381
" />
<path d="M98.3596 87.2381
L98.2643 87.1905
" />
<path d="M98.2643 87.1905
L97.4548 87.1905
" />
<path d="M98.4548 86.1905
L98.4548 86.7619
" />
<path d="M98.4548 86.4762
L97.4548 86.4762
" />
<path d="M97.4548 86.4762
L97.5977 86.5714
" />
<path d="M97.5977 86.5714
L97.6929 86.6667
" />
<path d="M97.6929 86.6667
L97.7405 86.7619
" />
</g><g transform="rotate(-90.000000 164.0000 121.9000)">
<text x="164.0000" y="122.4000"
textLength="2.2024" font-size="1.3333" lengthAdjust="spacingAndGlyphs"
text-anchor="middle" opacity="0" stroke-opacity="0">R8</text>
</g>
<g class="stroked-text"><desc>R8</desc>
<path d="M164.4548 122.0667
L163.9786 122.4000
" />
<path d="M164.4548 122.6381
L163.4548 122.6381
" />
<path d="M163.4548 122.6381
L163.4548 122.2571
" />
<path d="M163.4548 122.2571
L163.5024 122.1619
" />
<path d="M163.5024 122.1619
L163.5501 122.1143
" />
<path d="M163.5501 122.1143
L163.6453 122.0667
" />
<path d="M163.6453 122.0667
L163.7882 122.0667
" />
<path d="M163.7882 122.0667
L163.8834 122.1143
" />
<path d="M163.8834 122.1143
L163.9310 122.1619
" />
<path d="M163.9310 122.1619
L163.9786 122.2571
" />
<path d="M163.9786 122.2571
L163.9786 122.6381
" />
<path d="M163.8834 121.4952
L163.8358 121.5905
" />
<path d="M163.8358 121.5905
L163.7882 121.6381
" />
<path d="M163.7882 121.6381
L163.6929 121.6857
" />
<path d="M163.6929 121.6857
L163.6453 121.6857
" />
<path d="M163.6453 121.6857
L163.5501 121.6381
" />
<path d="M163.5501 121.6381
L163.5024 121.5905
" />
<path d="M163.5024 121.5905
L163.4548 121.4952
" />
<path d="M163.4548 121.4952
L163.4548 121.3048
" />
<path d="M163.4548 121.3048
L163.5024 121.2095
" />
<path d="M163.5024 121.2095
L163.5501 121.1619
" />
<path d="M163.5501 121.1619
L163.6453 121.1143
" />
<path d="M163.6453 121.1143
L163.6929 121.1143
" />
<path d="M163.6929 121.1143
L163.7882 121.1619
" />
<path d="M163.7882 121.1619
L163.8358 121.2095
" />
<path d="M163.8358 121.2095
L163.8834 121.3048
" />
<path d="M163.8834 121.3048
L163.8834 121.4952
" />
<path d="M163.8834 121.4952
L163.9310 121.5905
" />
<path d="M163.9310 121.5905
L163.9786 121.6381
" />
<path d="M163.9786 121.6381
L164.0739 121.6857
" />
<path d="M164.0739 121.6857
L164.2643 121.6857
" />
<path d="M164.2643 121.6857
L164.3596 121.6381
" />
<path d="M164.3596 121.6381
L164.4072 121.5905
" />
<path d="M164.4072 121.5905
L164.4548 121.4952
" />
<path d="M164.4548 121.4952
L164.4548 121.3048
" />
<path d="M164.4548 121.3048
L164.4072 121.2095
" />
<path d="M164.4072 121.2095
L164.3596 121.1619
" />
<path d="M164.3596 121.1619
L164.2643 121.1143
" />
<path d="M164.2643 121.1143
L164.0739 121.1143
" />
<path d="M164.0739 121.1143
L163.9786 121.1619
" />
<path d="M163.9786 121.1619
L163.9310 121.2095
" />
<path d="M163.9310 121.2095
L163.8834 121.3048
" />
</g><text x="170.4500" y="68.3500"
textLength="2.2024" font-size="1.3333" lengthAdjust="spacingAndGlyphs"
text-anchor="middle" opacity="0" stroke-opacity="0">R1</text>
<g class="stroked-text"><desc>R1</desc>
<path d="M170.2833 68.3048
L169.9500 67.8286
" />
<path d="M169.7119 68.3048
L169.7119 67.3048
" />
<path d="M169.7119 67.3048
L170.0929 67.3048
" />
<path d="M170.0929 67.3048
L170.1881 67.3524
" />
<path d="M170.1881 67.3524
L170.2357 67.4001
" />
<path d="M170.2357 67.4001
L170.2833 67.4953
" />
<path d="M170.2833 67.4953
L170.2833 67.6382
" />
<path d="M170.2833 67.6382
L170.2357 67.7334
" />
<path d="M170.2357 67.7334
L170.1881 67.7810
" />
<path d="M170.1881 67.7810
L170.0929 67.8286
" />
<path d="M170.0929 67.8286
L169.7119 67.8286
" />
<path d="M171.2357 68.3048
L170.6643 68.3048
" />
<path d="M170.9500 68.3048
L170.9500 67.3048
" />
<path d="M170.9500 67.3048
L170.8548 67.4477
" />
<path d="M170.8548 67.4477
L170.7595 67.5429
" />
<path d="M170.7595 67.5429
L170.6643 67.5905
" />
</g><g transform="rotate(-90.000000 178.0000 67.5000)">
<text x="178.0000" y="68.0000"
textLength="3.1548" font-size="1.3333" lengthAdjust="spacingAndGlyphs"
text-anchor="middle" opacity="0" stroke-opacity="0">R11</text>
</g>
<g class="stroked-text"><desc>R11</desc>
<path d="M178.4548 68.1429
L177.9786 68.4762
" />
<path d="M178.4548 68.7143
L177.4548 68.7143
" />
<path d="M177.4548 68.7143
L177.4548 68.3333
" />
<path d="M177.4548 68.3333
L177.5024 68.2381
" />
<path d="M177.5024 68.2381
L177.5501 68.1905
" />
<path d="M177.5501 68.1905
L177.6453 68.1429
" />
<path d="M177.6453 68.1429
L177.7882 68.1429
" />
<path d="M177.7882 68.1429
L177.8834 68.1905
" />
<path d="M177.8834 68.1905
L177.9310 68.2381
" />
<path d="M177.9310 68.2381
L177.9786 68.3333
" />
<path d="M177.9786 68.3333
L177.9786 68.7143
" />
<path d="M178.4548 67.1905
L178.4548 67.7619
" />
<path d="M178.4548 67.4762
L177.4548 67.4762
" />
<path d="M177.4548 67.4762
L177.5977 67.5714
" />
<path d="M177.5977 67.5714
L177.6929 67.6667
" />
<path d="M177.6929 67.6667
L177.7405 67.7619
" />
<path d="M178.4548 66.2381
L178.4548 66.8095
" />
<path d="M178.4548 66.5238
L177.4548 66.5238
" />
<path d="M177.4548 66.5238
L177.5977 66.6190
" />
<path d="M177.5977 66.6190
L177.6929 66.7143
" />
<path d="M177.6929 66.7143
L177.7405 66.8095
" />
</g><text x="170.6500" y="121.5500"
textLength="2.2024" font-size="1.3333" lengthAdjust="spacingAndGlyphs"
text-anchor="middle" opacity="0" stroke-opacity="0">R2</text>
<g class="stroked-text"><desc>R2</desc>
<path d="M170.4833 121.5048
L170.1500 121.0286
" />
<path d="M169.9119 121.5048
L169.9119 120.5048
" />
<path d="M169.9119 120.5048
L170.2929 120.5048
" />
<path d="M170.2929 120.5048
L170.3881 120.5524
" />
<path d="M170.3881 120.5524
L170.4357 120.6001
" />
<path d="M170.4357 120.6001
L170.4833 120.6953
" />
<path d="M170.4833 120.6953
L170.4833 120.8382
" />
<path d="M170.4833 120.8382
L170.4357 120.9334
" />
<path d="M170.4357 120.9334
L170.3881 120.9810
" />
<path d="M170.3881 120.9810
L170.2929 121.0286
" />
<path d="M170.2929 121.0286
L169.9119 121.0286
" />
<path d="M170.8643 120.6001
L170.9119 120.5524
" />
<path d="M170.9119 120.5524
L171.0071 120.5048
" />
<path d="M171.0071 120.5048
L171.2452 120.5048
" />
<path d="M171.2452 120.5048
L171.3405 120.5524
" />
<path d="M171.3405 120.5524
L171.3881 120.6001
" />
<path d="M171.3881 120.6001
L171.4357 120.6953
" />
<path d="M171.4357 120.6953
L171.4357 120.7905
" />
<path d="M171.4357 120.7905
L171.3881 120.9334
" />
<path d="M171.3881 120.9334
L170.8167 121.5048
" />
<path d="M170.8167 121.5048
L171.4357 121.5048
" />
</g><g transform="rotate(-90.000000 145.0000 86.5000)">
<text x="145.0000" y="87.0000"
textLength="2.2500" font-size="1.3333" lengthAdjust="spacingAndGlyphs"
text-anchor="middle" opacity="0" stroke-opacity="0">U2</text>
</g>
<g class="stroked-text"><desc>U2</desc>
<path d="M144.4548 87.2619
L145.2643 87.2619
" />
<path d="M145.2643 87.2619
L145.3596 87.2143
" />
<path d="M145.3596 87.2143
L145.4072 87.1667
" />
<path d="M145.4072 87.1667
L145.4548 87.0714
" />
<path d="M145.4548 87.0714
L145.4548 86.8810
" />
<path d="M145.4548 86.8810
L145.4072 86.7857
" />
<path d="M145.4072 86.7857
L145.3596 86.7381
" />
<path d="M145.3596 86.7381
L145.2643 86.6905
" />
<path d="M145.2643 86.6905
L144.4548 86.6905
" />
<path d="M144.5501 86.2619
L144.5024 86.2143
" />
<path d="M144.5024 86.2143
L144.4548 86.1190
" />
<path d="M144.4548 86.1190
L144.4548 85.8810
" />
<path d="M144.4548 85.8810
L144.5024 85.7857
" />
<path d="M144.5024 85.7857
L144.5501 85.7381
" />
<path d="M144.5501 85.7381
L144.6453 85.6905
" />
<path d="M144.6453 85.6905
L144.7405 85.6905
" />
<path d="M144.7405 85.6905
L144.8834 85.7381
" />
<path d="M144.8834 85.7381
L145.4548 86.3095
" />
<path d="M145.4548 86.3095
L145.4548 85.6905
" />
</g><g transform="rotate(-90.000000 155.5000 57.0000)">
<text x="155.5000" y="57.5000"
textLength="2.2024" font-size="1.3333" lengthAdjust="spacingAndGlyphs"
text-anchor="middle" opacity="0" stroke-opacity="0">R7</text>
</g>
<g class="stroked-text"><desc>R7</desc>
<path d="M155.9548 57.1667
L155.4786 57.5000
" />
<path d="M155.9548 57.7381
L154.9548 57.7381
" />
<path d="M154.9548 57.7381
L154.9548 57.3571
" />
<path d="M154.9548 57.3571
L155.0024 57.2619
" />
<path d="M155.0024 57.2619
L155.0501 57.2143
" />
<path d="M155.0501 57.2143
L155.1453 57.1667
" />
<path d="M155.1453 57.1667
L155.2882 57.1667
" />
<path d="M155.2882 57.1667
L155.3834 57.2143
" />
<path d="M155.3834 57.2143
L155.4310 57.2619
" />
<path d="M155.4310 57.2619
L155.4786 57.3571
" />
<path d="M155.4786 57.3571
L155.4786 57.7381
" />
<path d="M154.9548 56.8333
L154.9548 56.1667
" />
<path d="M154.9548 56.1667
L155.9548 56.5952
" />
</g><g transform="rotate(-90.000000 104.0000 121.0000)">
<text x="104.0000" y="121.5000"
textLength="1.9643" font-size="1.3333" lengthAdjust="spacingAndGlyphs"
text-anchor="middle" opacity="0" stroke-opacity="0">J1</text>
</g>
<g class="stroked-text"><desc>J1</desc>
<path d="M103.4548 121.3333
L104.1691 121.3333
" />
<path d="M104.1691 121.3333
L104.3120 121.3810
" />
<path d="M104.3120 121.3810
L104.4072 121.4762
" />
<path d="M104.4072 121.4762
L104.4548 121.6190
" />
<path d="M104.4548 121.6190
L104.4548 121.7143
" />
<path d="M104.4548 120.3333
L104.4548 120.9048
" />
<path d="M104.4548 120.6190
L103.4548 120.6190
" />
<path d="M103.4548 120.6190
L103.5977 120.7143
" />
<path d="M103.5977 120.7143
L103.6929 120.8095
" />
<path d="M103.6929 120.8095
L103.7405 120.9048
" />
</g><g transform="rotate(-90.000000 104.0000 116.5000)">
<text x="104.0000" y="117.0000"
textLength="2.9643" font-size="1.3333" lengthAdjust="spacingAndGlyphs"
text-anchor="middle" opacity="0" stroke-opacity="0">TRX</text>
</g>
<g class="stroked-text"><desc>TRX</desc>
<path d="M103.4548 117.7619
L103.4548 117.1905
" />
<path d="M104.4548 117.4762
L103.4548 117.4762
" />
<path d="M104.4548 116.2857
L103.9786 116.6190
" />
<path d="M104.4548 116.8571
L103.4548 116.8571
" />
<path d="M103.4548 116.8571
L103.4548 116.4762
" />
<path d="M103.4548 116.4762
L103.5024 116.3810
" />
<path d="M103.5024 116.3810
L103.5501 116.3333
" />
<path d="M103.5501 116.3333
L103.6453 116.2857
" />
<path d="M103.6453 116.2857
L103.7882 116.2857
" />
<path d="M103.7882 116.2857
L103.8834 116.3333
" />
<path d="M103.8834 116.3333
L103.9310 116.3810
" />
<path d="M103.9310 116.3810
L103.9786 116.4762
" />
<path d="M103.9786 116.4762
L103.9786 116.8571
" />
<path d="M103.4548 115.9524
L104.4548 115.2857
" />
<path d="M103.4548 115.2857
L104.4548 115.9524
" />
</g><text x="170.3500" y="58.4000"
textLength="2.2024" font-size="1.3333" lengthAdjust="spacingAndGlyphs"
text-anchor="middle" opacity="0" stroke-opacity="0">R3</text>
<g class="stroked-text"><desc>R3</desc>
<path d="M170.1833 58.3548
L169.8500 57.8786
" />
<path d="M169.6119 58.3548
L169.6119 57.3548
" />
<path d="M169.6119 57.3548
L169.9929 57.3548
" />
<path d="M169.9929 57.3548
L170.0881 57.4024
" />
<path d="M170.0881 57.4024
L170.1357 57.4501
" />
<path d="M170.1357 57.4501
L170.1833 57.5453
" />
<path d="M170.1833 57.5453
L170.1833 57.6882
" />
<path d="M170.1833 57.6882
L170.1357 57.7834
" />
<path d="M170.1357 57.7834
L170.0881 57.8310
" />
<path d="M170.0881 57.8310
L169.9929 57.8786
" />
<path d="M169.9929 57.8786
L169.6119 57.8786
" />
<path d="M170.5167 57.3548
L171.1357 57.3548
" />
<path d="M171.1357 57.3548
L170.8024 57.7358
" />
<path d="M170.8024 57.7358
L170.9452 57.7358
" />
<path d="M170.9452 57.7358
L171.0405 57.7834
" />
<path d="M171.0405 57.7834
L171.0881 57.8310
" />
<path d="M171.0881 57.8310
L171.1357 57.9262
" />
<path d="M171.1357 57.9262
L171.1357 58.1643
" />
<path d="M171.1357 58.1643
L171.0881 58.2596
" />
<path d="M171.0881 58.2596
L171.0405 58.3072
" />
<path d="M171.0405 58.3072
L170.9452 58.3548
" />
<path d="M170.9452 58.3548
L170.6595 58.3548
" />
<path d="M170.6595 58.3548
L170.5643 58.3072
" />
<path d="M170.5643 58.3072
L170.5167 58.2596
" />
</g><g transform="rotate(-90.000000 163.0000 57.0000)">
<text x="163.0000" y="57.5000"
textLength="2.2024" font-size="1.3333" lengthAdjust="spacingAndGlyphs"
text-anchor="middle" opacity="0" stroke-opacity="0">R5</text>
</g>
<g class="stroked-text"><desc>R5</desc>
<path d="M163.4548 57.1667
L162.9786 57.5000
" />
<path d="M163.4548 57.7381
L162.4548 57.7381
" />
<path d="M162.4548 57.7381
L162.4548 57.3571
" />
<path d="M162.4548 57.3571
L162.5024 57.2619
" />
<path d="M162.5024 57.2619
L162.5501 57.2143
" />
<path d="M162.5501 57.2143
L162.6453 57.1667
" />
<path d="M162.6453 57.1667
L162.7882 57.1667
" />
<path d="M162.7882 57.1667
L162.8834 57.2143
" />
<path d="M162.8834 57.2143
L162.9310 57.2619
" />
<path d="M162.9310 57.2619
L162.9786 57.3571
" />
<path d="M162.9786 57.3571
L162.9786 57.7381
" />
<path d="M162.4548 56.2619
L162.4548 56.7381
" />
<path d="M162.4548 56.7381
L162.9310 56.7857
" />
<path d="M162.9310 56.7857
L162.8834 56.7381
" />
<path d="M162.8834 56.7381
L162.8358 56.6429
" />
<path d="M162.8358 56.6429
L162.8358 56.4048
" />
<path d="M162.8358 56.4048
L162.8834 56.3095
" />
<path d="M162.8834 56.3095
L162.9310 56.2619
" />
<path d="M162.9310 56.2619
L163.0262 56.2143
" />
<path d="M163.0262 56.2143
L163.2643 56.2143
" />
<path d="M163.2643 56.2143
L163.3596 56.2619
" />
<path d="M163.3596 56.2619
L163.4072 56.3095
" />
<path d="M163.4072 56.3095
L163.4548 56.4048
" />
<path d="M163.4548 56.4048
L163.4548 56.6429
" />
<path d="M163.4548 56.6429
L163.4072 56.7381
" />
<path d="M163.4072 56.7381
L163.3596 56.7857
" />
</g></g>
<g style="fill:none; 
stroke:#000000; stroke-width:0.1200; stroke-opacity:1; 
stroke-linecap:round; stroke-linejoin:round;">
<path d="M157.7900 64.7271
L157.7900 60.3729
" />
<path d="M161.2100 64.7271
L161.2100 60.3729
" />
<path d="M158.2900 113.7729
L158.2900 118.1271
" />
<path d="M161.7100 113.7729
L161.7100 118.1271
" />
<path d="M173.2271 112.2900
L168.8729 112.2900
" />
<path d="M173.2271 115.7100
L168.8729 115.7100
" />
<path d="M154.2900 113.7729
L154.2900 118.1271
" />
<path d="M157.7100 113.7729
L157.7100 118.1271
" />
<path d="M176.7900 117.2271
L176.7900 112.8729
" />
<path d="M180.2100 117.2271
L180.2100 112.8729
" />
<path d="M162.2900 113.7729
L162.2900 118.1271
" />
<path d="M165.7100 113.7729
L165.7100 118.1271
" />
<path d="M172.6271 62.7900
L168.2729 62.7900
" />
<path d="M172.6271 66.2100
L168.2729 66.2100
" />
<path d="M176.2900 63.6271
L176.2900 59.2729
" />
<path d="M179.7100 63.6271
L179.7100 59.2729
" />
<path d="M173.2271 116.2900
L168.8729 116.2900
" />
<path d="M173.2271 119.7100
L168.8729 119.7100
" />
<path d="M153.7900 64.7271
L153.7900 60.3729
" />
<path d="M157.2100 64.7271
L157.2100 60.3729
" />
<path d="M172.6271 58.7900
L168.2729 58.7900
" />
<path d="M172.6271 62.2100
L168.2729 62.2100
" />
<path d="M161.7900 64.7271
L161.7900 60.3729
" />
<path d="M165.2100 64.7271
L165.2100 60.3729
" />
</g> 
</svg>
