<?xml version="1.0" standalone="no"?>
 <!DOCTYPE svg PUBLIC "-//W3C//DTD SVG 1.1//EN" 
 "http://www.w3.org/Graphics/SVG/1.1/DTD/svg11.dtd"> 
<svg
  xmlns:svg="http://www.w3.org/2000/svg"
  xmlns="http://www.w3.org/2000/svg"
  xmlns:xlink="http://www.w3.org/1999/xlink"
  version="1.1"
  width="297.0022mm" height="210.0072mm" viewBox="0.0000 0.0000 297.0022 210.0072">
<title>SVG Image created as det-mcu-B_Mask.svg date 2025/04/20 14:12:54 </title>
  <desc>Image generated by PCBNEW </desc>
<g style="fill:#000000; fill-opacity:1.0000;stroke:#000000; stroke-opacity:1.0000;
stroke-linecap:round; stroke-linejoin:round;"
 transform="translate(0 0) scale(1 1)">
</g>
<g style="fill:none; 
stroke:#000000; stroke-width:0.1500; stroke-opacity:1; 
stroke-linecap:round; stroke-linejoin:round;">
<path d="M177.0022 166.0072
L285.0022 166.0072
L285.0022 198.0072
L177.0022 198.0072
L177.0022 166.0072
" />
</g>
<g style="fill:none; 
stroke:#000000; stroke-width:0.1500; stroke-opacity:1; 
stroke-linecap:round; stroke-linejoin:round;">
<path d="M10.0000 10.0000
L287.0022 10.0000
L287.0022 200.0072
L10.0000 200.0072
L10.0000 10.0000
" />
</g>
<g style="fill:none; 
stroke:#000000; stroke-width:0.1500; stroke-opacity:1; 
stroke-linecap:round; stroke-linejoin:round;">
<path d="M12.0000 12.0000
L285.0022 12.0000
L285.0022 198.0072
L12.0000 198.0072
L12.0000 12.0000
" />
</g>
<g style="fill:none; 
stroke:#000000; stroke-width:0.1500; stroke-opacity:1; 
stroke-linecap:round; stroke-linejoin:round;">
<path d="M60.0000 12.0000
L60.0000 10.0000
" />
</g>
<g style="fill:none; 
stroke:#000000; stroke-width:0.1500; stroke-opacity:1; 
stroke-linecap:round; stroke-linejoin:round;">
<path d="M110.0000 12.0000
L110.0000 10.0000
" />
</g>
<g style="fill:none; 
stroke:#000000; stroke-width:0.1500; stroke-opacity:1; 
stroke-linecap:round; stroke-linejoin:round;">
<path d="M160.0000 12.0000
L160.0000 10.0000
" />
</g>
<g style="fill:none; 
stroke:#000000; stroke-width:0.1500; stroke-opacity:1; 
stroke-linecap:round; stroke-linejoin:round;">
<path d="M210.0000 12.0000
L210.0000 10.0000
" />
</g>
<g style="fill:none; 
stroke:#000000; stroke-width:0.1500; stroke-opacity:1; 
stroke-linecap:round; stroke-linejoin:round;">
<path d="M260.0000 12.0000
L260.0000 10.0000
" />
</g>
<g style="fill:none; 
stroke:#000000; stroke-width:0.1500; stroke-opacity:1; 
stroke-linecap:round; stroke-linejoin:round;">
<text x="35.0000" y="11.6500"
textLength="1.4281" font-size="1.7333" lengthAdjust="spacingAndGlyphs"
text-anchor="start" opacity="0" stroke-opacity="0">1</text>
<g class="stroked-text"><desc>1</desc>
<path d="M36.0892 11.5936
L35.3463 11.5936
" />
<path d="M35.7177 11.5936
L35.7177 10.2936
" />
<path d="M35.7177 10.2936
L35.5939 10.4793
" />
<path d="M35.5939 10.4793
L35.4701 10.6031
" />
<path d="M35.4701 10.6031
L35.3463 10.6650
" />
</g></g>
<g style="fill:none; 
stroke:#000000; stroke-width:0.1500; stroke-opacity:1; 
stroke-linecap:round; stroke-linejoin:round;">
<text x="85.0000" y="11.6500"
textLength="1.4281" font-size="1.7333" lengthAdjust="spacingAndGlyphs"
text-anchor="start" opacity="0" stroke-opacity="0">2</text>
<g class="stroked-text"><desc>2</desc>
<path d="M85.3463 10.4174
L85.4082 10.3555
" />
<path d="M85.4082 10.3555
L85.5320 10.2936
" />
<path d="M85.5320 10.2936
L85.8415 10.2936
" />
<path d="M85.8415 10.2936
L85.9654 10.3555
" />
<path d="M85.9654 10.3555
L86.0273 10.4174
" />
<path d="M86.0273 10.4174
L86.0892 10.5412
" />
<path d="M86.0892 10.5412
L86.0892 10.6650
" />
<path d="M86.0892 10.6650
L86.0273 10.8507
" />
<path d="M86.0273 10.8507
L85.2844 11.5936
" />
<path d="M85.2844 11.5936
L86.0892 11.5936
" />
</g></g>
<g style="fill:none; 
stroke:#000000; stroke-width:0.1500; stroke-opacity:1; 
stroke-linecap:round; stroke-linejoin:round;">
<text x="135.0000" y="11.6500"
textLength="1.4281" font-size="1.7333" lengthAdjust="spacingAndGlyphs"
text-anchor="start" opacity="0" stroke-opacity="0">3</text>
<g class="stroked-text"><desc>3</desc>
<path d="M135.2844 10.2936
L136.0892 10.2936
" />
<path d="M136.0892 10.2936
L135.6558 10.7888
" />
<path d="M135.6558 10.7888
L135.8415 10.7888
" />
<path d="M135.8415 10.7888
L135.9654 10.8507
" />
<path d="M135.9654 10.8507
L136.0273 10.9127
" />
<path d="M136.0273 10.9127
L136.0892 11.0365
" />
<path d="M136.0892 11.0365
L136.0892 11.3460
" />
<path d="M136.0892 11.3460
L136.0273 11.4698
" />
<path d="M136.0273 11.4698
L135.9654 11.5317
" />
<path d="M135.9654 11.5317
L135.8415 11.5936
" />
<path d="M135.8415 11.5936
L135.4701 11.5936
" />
<path d="M135.4701 11.5936
L135.3463 11.5317
" />
<path d="M135.3463 11.5317
L135.2844 11.4698
" />
</g></g>
<g style="fill:none; 
stroke:#000000; stroke-width:0.1500; stroke-opacity:1; 
stroke-linecap:round; stroke-linejoin:round;">
<text x="185.0000" y="11.6500"
textLength="1.4281" font-size="1.7333" lengthAdjust="spacingAndGlyphs"
text-anchor="start" opacity="0" stroke-opacity="0">4</text>
<g class="stroked-text"><desc>4</desc>
<path d="M185.9654 10.7269
L185.9654 11.5936
" />
<path d="M185.6558 10.2317
L185.3463 11.1603
" />
<path d="M185.3463 11.1603
L186.1511 11.1603
" />
</g></g>
<g style="fill:none; 
stroke:#000000; stroke-width:0.1500; stroke-opacity:1; 
stroke-linecap:round; stroke-linejoin:round;">
<text x="235.0000" y="11.6500"
textLength="1.4281" font-size="1.7333" lengthAdjust="spacingAndGlyphs"
text-anchor="start" opacity="0" stroke-opacity="0">5</text>
<g class="stroked-text"><desc>5</desc>
<path d="M236.0273 10.2936
L235.4082 10.2936
" />
<path d="M235.4082 10.2936
L235.3463 10.9127
" />
<path d="M235.3463 10.9127
L235.4082 10.8507
" />
<path d="M235.4082 10.8507
L235.5320 10.7888
" />
<path d="M235.5320 10.7888
L235.8415 10.7888
" />
<path d="M235.8415 10.7888
L235.9654 10.8507
" />
<path d="M235.9654 10.8507
L236.0273 10.9127
" />
<path d="M236.0273 10.9127
L236.0892 11.0365
" />
<path d="M236.0892 11.0365
L236.0892 11.3460
" />
<path d="M236.0892 11.3460
L236.0273 11.4698
" />
<path d="M236.0273 11.4698
L235.9654 11.5317
" />
<path d="M235.9654 11.5317
L235.8415 11.5936
" />
<path d="M235.8415 11.5936
L235.5320 11.5936
" />
<path d="M235.5320 11.5936
L235.4082 11.5317
" />
<path d="M235.4082 11.5317
L235.3463 11.4698
" />
</g></g>
<g style="fill:none; 
stroke:#000000; stroke-width:0.1500; stroke-opacity:1; 
stroke-linecap:round; stroke-linejoin:round;">
<text x="285.0000" y="11.6500"
textLength="1.4281" font-size="1.7333" lengthAdjust="spacingAndGlyphs"
text-anchor="start" opacity="0" stroke-opacity="0">6</text>
<g class="stroked-text"><desc>6</desc>
<path d="M285.9654 10.2936
L285.7177 10.2936
" />
<path d="M285.7177 10.2936
L285.5939 10.3555
" />
<path d="M285.5939 10.3555
L285.5320 10.4174
" />
<path d="M285.5320 10.4174
L285.4082 10.6031
" />
<path d="M285.4082 10.6031
L285.3463 10.8507
" />
<path d="M285.3463 10.8507
L285.3463 11.3460
" />
<path d="M285.3463 11.3460
L285.4082 11.4698
" />
<path d="M285.4082 11.4698
L285.4701 11.5317
" />
<path d="M285.4701 11.5317
L285.5939 11.5936
" />
<path d="M285.5939 11.5936
L285.8415 11.5936
" />
<path d="M285.8415 11.5936
L285.9654 11.5317
" />
<path d="M285.9654 11.5317
L286.0273 11.4698
" />
<path d="M286.0273 11.4698
L286.0892 11.3460
" />
<path d="M286.0892 11.3460
L286.0892 11.0365
" />
<path d="M286.0892 11.0365
L286.0273 10.9127
" />
<path d="M286.0273 10.9127
L285.9654 10.8507
" />
<path d="M285.9654 10.8507
L285.8415 10.7888
" />
<path d="M285.8415 10.7888
L285.5939 10.7888
" />
<path d="M285.5939 10.7888
L285.4701 10.8507
" />
<path d="M285.4701 10.8507
L285.4082 10.9127
" />
<path d="M285.4082 10.9127
L285.3463 11.0365
" />
</g></g>
<g style="fill:none; 
stroke:#000000; stroke-width:0.1500; stroke-opacity:1; 
stroke-linecap:round; stroke-linejoin:round;">
<path d="M60.0000 198.0072
L60.0000 200.0072
" />
</g>
<g style="fill:none; 
stroke:#000000; stroke-width:0.1500; stroke-opacity:1; 
stroke-linecap:round; stroke-linejoin:round;">
<path d="M110.0000 198.0072
L110.0000 200.0072
" />
</g>
<g style="fill:none; 
stroke:#000000; stroke-width:0.1500; stroke-opacity:1; 
stroke-linecap:round; stroke-linejoin:round;">
<path d="M160.0000 198.0072
L160.0000 200.0072
" />
</g>
<g style="fill:none; 
stroke:#000000; stroke-width:0.1500; stroke-opacity:1; 
stroke-linecap:round; stroke-linejoin:round;">
<path d="M210.0000 198.0072
L210.0000 200.0072
" />
</g>
<g style="fill:none; 
stroke:#000000; stroke-width:0.1500; stroke-opacity:1; 
stroke-linecap:round; stroke-linejoin:round;">
<path d="M260.0000 198.0072
L260.0000 200.0072
" />
</g>
<g style="fill:none; 
stroke:#000000; stroke-width:0.1500; stroke-opacity:1; 
stroke-linecap:round; stroke-linejoin:round;">
<text x="35.0000" y="199.6572"
textLength="1.4281" font-size="1.7333" lengthAdjust="spacingAndGlyphs"
text-anchor="start" opacity="0" stroke-opacity="0">1</text>
<g class="stroked-text"><desc>1</desc>
<path d="M36.0892 199.6008
L35.3463 199.6008
" />
<path d="M35.7177 199.6008
L35.7177 198.3008
" />
<path d="M35.7177 198.3008
L35.5939 198.4865
" />
<path d="M35.5939 198.4865
L35.4701 198.6103
" />
<path d="M35.4701 198.6103
L35.3463 198.6722
" />
</g></g>
<g style="fill:none; 
stroke:#000000; stroke-width:0.1500; stroke-opacity:1; 
stroke-linecap:round; stroke-linejoin:round;">
<text x="85.0000" y="199.6572"
textLength="1.4281" font-size="1.7333" lengthAdjust="spacingAndGlyphs"
text-anchor="start" opacity="0" stroke-opacity="0">2</text>
<g class="stroked-text"><desc>2</desc>
<path d="M85.3463 198.4246
L85.4082 198.3627
" />
<path d="M85.4082 198.3627
L85.5320 198.3008
" />
<path d="M85.5320 198.3008
L85.8415 198.3008
" />
<path d="M85.8415 198.3008
L85.9654 198.3627
" />
<path d="M85.9654 198.3627
L86.0273 198.4246
" />
<path d="M86.0273 198.4246
L86.0892 198.5484
" />
<path d="M86.0892 198.5484
L86.0892 198.6722
" />
<path d="M86.0892 198.6722
L86.0273 198.8579
" />
<path d="M86.0273 198.8579
L85.2844 199.6008
" />
<path d="M85.2844 199.6008
L86.0892 199.6008
" />
</g></g>
<g style="fill:none; 
stroke:#000000; stroke-width:0.1500; stroke-opacity:1; 
stroke-linecap:round; stroke-linejoin:round;">
<text x="135.0000" y="199.6572"
textLength="1.4281" font-size="1.7333" lengthAdjust="spacingAndGlyphs"
text-anchor="start" opacity="0" stroke-opacity="0">3</text>
<g class="stroked-text"><desc>3</desc>
<path d="M135.2844 198.3008
L136.0892 198.3008
" />
<path d="M136.0892 198.3008
L135.6558 198.7960
" />
<path d="M135.6558 198.7960
L135.8415 198.7960
" />
<path d="M135.8415 198.7960
L135.9654 198.8579
" />
<path d="M135.9654 198.8579
L136.0273 198.9199
" />
<path d="M136.0273 198.9199
L136.0892 199.0437
" />
<path d="M136.0892 199.0437
L136.0892 199.3532
" />
<path d="M136.0892 199.3532
L136.0273 199.4770
" />
<path d="M136.0273 199.4770
L135.9654 199.5389
" />
<path d="M135.9654 199.5389
L135.8415 199.6008
" />
<path d="M135.8415 199.6008
L135.4701 199.6008
" />
<path d="M135.4701 199.6008
L135.3463 199.5389
" />
<path d="M135.3463 199.5389
L135.2844 199.4770
" />
</g></g>
<g style="fill:none; 
stroke:#000000; stroke-width:0.1500; stroke-opacity:1; 
stroke-linecap:round; stroke-linejoin:round;">
<text x="185.0000" y="199.6572"
textLength="1.4281" font-size="1.7333" lengthAdjust="spacingAndGlyphs"
text-anchor="start" opacity="0" stroke-opacity="0">4</text>
<g class="stroked-text"><desc>4</desc>
<path d="M185.9654 198.7341
L185.9654 199.6008
" />
<path d="M185.6558 198.2389
L185.3463 199.1675
" />
<path d="M185.3463 199.1675
L186.1511 199.1675
" />
</g></g>
<g style="fill:none; 
stroke:#000000; stroke-width:0.1500; stroke-opacity:1; 
stroke-linecap:round; stroke-linejoin:round;">
<text x="235.0000" y="199.6572"
textLength="1.4281" font-size="1.7333" lengthAdjust="spacingAndGlyphs"
text-anchor="start" opacity="0" stroke-opacity="0">5</text>
<g class="stroked-text"><desc>5</desc>
<path d="M236.0273 198.3008
L235.4082 198.3008
" />
<path d="M235.4082 198.3008
L235.3463 198.9199
" />
<path d="M235.3463 198.9199
L235.4082 198.8579
" />
<path d="M235.4082 198.8579
L235.5320 198.7960
" />
<path d="M235.5320 198.7960
L235.8415 198.7960
" />
<path d="M235.8415 198.7960
L235.9654 198.8579
" />
<path d="M235.9654 198.8579
L236.0273 198.9199
" />
<path d="M236.0273 198.9199
L236.0892 199.0437
" />
<path d="M236.0892 199.0437
L236.0892 199.3532
" />
<path d="M236.0892 199.3532
L236.0273 199.4770
" />
<path d="M236.0273 199.4770
L235.9654 199.5389
" />
<path d="M235.9654 199.5389
L235.8415 199.6008
" />
<path d="M235.8415 199.6008
L235.5320 199.6008
" />
<path d="M235.5320 199.6008
L235.4082 199.5389
" />
<path d="M235.4082 199.5389
L235.3463 199.4770
" />
</g></g>
<g style="fill:none; 
stroke:#000000; stroke-width:0.1500; stroke-opacity:1; 
stroke-linecap:round; stroke-linejoin:round;">
<text x="285.0000" y="199.6572"
textLength="1.4281" font-size="1.7333" lengthAdjust="spacingAndGlyphs"
text-anchor="start" opacity="0" stroke-opacity="0">6</text>
<g class="stroked-text"><desc>6</desc>
<path d="M285.9654 198.3008
L285.7177 198.3008
" />
<path d="M285.7177 198.3008
L285.5939 198.3627
" />
<path d="M285.5939 198.3627
L285.5320 198.4246
" />
<path d="M285.5320 198.4246
L285.4082 198.6103
" />
<path d="M285.4082 198.6103
L285.3463 198.8579
" />
<path d="M285.3463 198.8579
L285.3463 199.3532
" />
<path d="M285.3463 199.3532
L285.4082 199.4770
" />
<path d="M285.4082 199.4770
L285.4701 199.5389
" />
<path d="M285.4701 199.5389
L285.5939 199.6008
" />
<path d="M285.5939 199.6008
L285.8415 199.6008
" />
<path d="M285.8415 199.6008
L285.9654 199.5389
" />
<path d="M285.9654 199.5389
L286.0273 199.4770
" />
<path d="M286.0273 199.4770
L286.0892 199.3532
" />
<path d="M286.0892 199.3532
L286.0892 199.0437
" />
<path d="M286.0892 199.0437
L286.0273 198.9199
" />
<path d="M286.0273 198.9199
L285.9654 198.8579
" />
<path d="M285.9654 198.8579
L285.8415 198.7960
" />
<path d="M285.8415 198.7960
L285.5939 198.7960
" />
<path d="M285.5939 198.7960
L285.4701 198.8579
" />
<path d="M285.4701 198.8579
L285.4082 198.9199
" />
<path d="M285.4082 198.9199
L285.3463 199.0437
" />
</g></g>
<g style="fill:none; 
stroke:#000000; stroke-width:0.1500; stroke-opacity:1; 
stroke-linecap:round; stroke-linejoin:round;">
<path d="M10.0000 60.0000
L12.0000 60.0000
" />
</g>
<g style="fill:none; 
stroke:#000000; stroke-width:0.1500; stroke-opacity:1; 
stroke-linecap:round; stroke-linejoin:round;">
<path d="M10.0000 110.0000
L12.0000 110.0000
" />
</g>
<g style="fill:none; 
stroke:#000000; stroke-width:0.1500; stroke-opacity:1; 
stroke-linecap:round; stroke-linejoin:round;">
<path d="M10.0000 160.0000
L12.0000 160.0000
" />
</g>
<g style="fill:none; 
stroke:#000000; stroke-width:0.1500; stroke-opacity:1; 
stroke-linecap:round; stroke-linejoin:round;">
<text x="11.0000" y="35.6500"
textLength="1.3043" font-size="1.7333" lengthAdjust="spacingAndGlyphs"
text-anchor="middle" opacity="0" stroke-opacity="0">A</text>
<g class="stroked-text"><desc>A</desc>
<path d="M10.6905 35.2222
L11.3095 35.2222
" />
<path d="M10.5667 35.5936
L11.0000 34.2936
" />
<path d="M11.0000 34.2936
L11.4333 35.5936
" />
</g></g>
<g style="fill:none; 
stroke:#000000; stroke-width:0.1500; stroke-opacity:1; 
stroke-linecap:round; stroke-linejoin:round;">
<text x="11.0000" y="85.6500"
textLength="1.4900" font-size="1.7333" lengthAdjust="spacingAndGlyphs"
text-anchor="middle" opacity="0" stroke-opacity="0">B</text>
<g class="stroked-text"><desc>B</desc>
<path d="M11.0929 84.9127
L11.2786 84.9746
" />
<path d="M11.2786 84.9746
L11.3405 85.0365
" />
<path d="M11.3405 85.0365
L11.4024 85.1603
" />
<path d="M11.4024 85.1603
L11.4024 85.3460
" />
<path d="M11.4024 85.3460
L11.3405 85.4698
" />
<path d="M11.3405 85.4698
L11.2786 85.5317
" />
<path d="M11.2786 85.5317
L11.1548 85.5936
" />
<path d="M11.1548 85.5936
L10.6595 85.5936
" />
<path d="M10.6595 85.5936
L10.6595 84.2936
" />
<path d="M10.6595 84.2936
L11.0929 84.2936
" />
<path d="M11.0929 84.2936
L11.2167 84.3555
" />
<path d="M11.2167 84.3555
L11.2786 84.4174
" />
<path d="M11.2786 84.4174
L11.3405 84.5412
" />
<path d="M11.3405 84.5412
L11.3405 84.6650
" />
<path d="M11.3405 84.6650
L11.2786 84.7888
" />
<path d="M11.2786 84.7888
L11.2167 84.8507
" />
<path d="M11.2167 84.8507
L11.0929 84.9127
" />
<path d="M11.0929 84.9127
L10.6595 84.9127
" />
</g></g>
<g style="fill:none; 
stroke:#000000; stroke-width:0.1500; stroke-opacity:1; 
stroke-linecap:round; stroke-linejoin:round;">
<text x="11.0000" y="135.6500"
textLength="1.4900" font-size="1.7333" lengthAdjust="spacingAndGlyphs"
text-anchor="middle" opacity="0" stroke-opacity="0">C</text>
<g class="stroked-text"><desc>C</desc>
<path d="M11.4024 135.4698
L11.3405 135.5317
" />
<path d="M11.3405 135.5317
L11.1548 135.5936
" />
<path d="M11.1548 135.5936
L11.0310 135.5936
" />
<path d="M11.0310 135.5936
L10.8452 135.5317
" />
<path d="M10.8452 135.5317
L10.7214 135.4079
" />
<path d="M10.7214 135.4079
L10.6595 135.2841
" />
<path d="M10.6595 135.2841
L10.5976 135.0365
" />
<path d="M10.5976 135.0365
L10.5976 134.8507
" />
<path d="M10.5976 134.8507
L10.6595 134.6031
" />
<path d="M10.6595 134.6031
L10.7214 134.4793
" />
<path d="M10.7214 134.4793
L10.8452 134.3555
" />
<path d="M10.8452 134.3555
L11.0310 134.2936
" />
<path d="M11.0310 134.2936
L11.1548 134.2936
" />
<path d="M11.1548 134.2936
L11.3405 134.3555
" />
<path d="M11.3405 134.3555
L11.4024 134.4174
" />
</g></g>
<g style="fill:none; 
stroke:#000000; stroke-width:0.1500; stroke-opacity:1; 
stroke-linecap:round; stroke-linejoin:round;">
<text x="11.0000" y="185.6500"
textLength="1.4900" font-size="1.7333" lengthAdjust="spacingAndGlyphs"
text-anchor="middle" opacity="0" stroke-opacity="0">D</text>
<g class="stroked-text"><desc>D</desc>
<path d="M10.6595 185.5936
L10.6595 184.2936
" />
<path d="M10.6595 184.2936
L10.9690 184.2936
" />
<path d="M10.9690 184.2936
L11.1548 184.3555
" />
<path d="M11.1548 184.3555
L11.2786 184.4793
" />
<path d="M11.2786 184.4793
L11.3405 184.6031
" />
<path d="M11.3405 184.6031
L11.4024 184.8507
" />
<path d="M11.4024 184.8507
L11.4024 185.0365
" />
<path d="M11.4024 185.0365
L11.3405 185.2841
" />
<path d="M11.3405 185.2841
L11.2786 185.4079
" />
<path d="M11.2786 185.4079
L11.1548 185.5317
" />
<path d="M11.1548 185.5317
L10.9690 185.5936
" />
<path d="M10.9690 185.5936
L10.6595 185.5936
" />
</g></g>
<g style="fill:none; 
stroke:#000000; stroke-width:0.1500; stroke-opacity:1; 
stroke-linecap:round; stroke-linejoin:round;">
<path d="M287.0022 60.0000
L285.0022 60.0000
" />
</g>
<g style="fill:none; 
stroke:#000000; stroke-width:0.1500; stroke-opacity:1; 
stroke-linecap:round; stroke-linejoin:round;">
<path d="M287.0022 110.0000
L285.0022 110.0000
" />
</g>
<g style="fill:none; 
stroke:#000000; stroke-width:0.1500; stroke-opacity:1; 
stroke-linecap:round; stroke-linejoin:round;">
<path d="M287.0022 160.0000
L285.0022 160.0000
" />
</g>
<g style="fill:none; 
stroke:#000000; stroke-width:0.1500; stroke-opacity:1; 
stroke-linecap:round; stroke-linejoin:round;">
<text x="286.0022" y="35.6500"
textLength="1.3043" font-size="1.7333" lengthAdjust="spacingAndGlyphs"
text-anchor="middle" opacity="0" stroke-opacity="0">A</text>
<g class="stroked-text"><desc>A</desc>
<path d="M285.6927 35.2222
L286.3117 35.2222
" />
<path d="M285.5689 35.5936
L286.0022 34.2936
" />
<path d="M286.0022 34.2936
L286.4355 35.5936
" />
</g></g>
<g style="fill:none; 
stroke:#000000; stroke-width:0.1500; stroke-opacity:1; 
stroke-linecap:round; stroke-linejoin:round;">
<text x="286.0022" y="85.6500"
textLength="1.4900" font-size="1.7333" lengthAdjust="spacingAndGlyphs"
text-anchor="middle" opacity="0" stroke-opacity="0">B</text>
<g class="stroked-text"><desc>B</desc>
<path d="M286.0951 84.9127
L286.2808 84.9746
" />
<path d="M286.2808 84.9746
L286.3427 85.0365
" />
<path d="M286.3427 85.0365
L286.4046 85.1603
" />
<path d="M286.4046 85.1603
L286.4046 85.3460
" />
<path d="M286.4046 85.3460
L286.3427 85.4698
" />
<path d="M286.3427 85.4698
L286.2808 85.5317
" />
<path d="M286.2808 85.5317
L286.1570 85.5936
" />
<path d="M286.1570 85.5936
L285.6617 85.5936
" />
<path d="M285.6617 85.5936
L285.6617 84.2936
" />
<path d="M285.6617 84.2936
L286.0951 84.2936
" />
<path d="M286.0951 84.2936
L286.2189 84.3555
" />
<path d="M286.2189 84.3555
L286.2808 84.4174
" />
<path d="M286.2808 84.4174
L286.3427 84.5412
" />
<path d="M286.3427 84.5412
L286.3427 84.6650
" />
<path d="M286.3427 84.6650
L286.2808 84.7888
" />
<path d="M286.2808 84.7888
L286.2189 84.8507
" />
<path d="M286.2189 84.8507
L286.0951 84.9127
" />
<path d="M286.0951 84.9127
L285.6617 84.9127
" />
</g></g>
<g style="fill:none; 
stroke:#000000; stroke-width:0.1500; stroke-opacity:1; 
stroke-linecap:round; stroke-linejoin:round;">
<text x="286.0022" y="135.6500"
textLength="1.4900" font-size="1.7333" lengthAdjust="spacingAndGlyphs"
text-anchor="middle" opacity="0" stroke-opacity="0">C</text>
<g class="stroked-text"><desc>C</desc>
<path d="M286.4046 135.4698
L286.3427 135.5317
" />
<path d="M286.3427 135.5317
L286.1570 135.5936
" />
<path d="M286.1570 135.5936
L286.0332 135.5936
" />
<path d="M286.0332 135.5936
L285.8474 135.5317
" />
<path d="M285.8474 135.5317
L285.7236 135.4079
" />
<path d="M285.7236 135.4079
L285.6617 135.2841
" />
<path d="M285.6617 135.2841
L285.5998 135.0365
" />
<path d="M285.5998 135.0365
L285.5998 134.8507
" />
<path d="M285.5998 134.8507
L285.6617 134.6031
" />
<path d="M285.6617 134.6031
L285.7236 134.4793
" />
<path d="M285.7236 134.4793
L285.8474 134.3555
" />
<path d="M285.8474 134.3555
L286.0332 134.2936
" />
<path d="M286.0332 134.2936
L286.1570 134.2936
" />
<path d="M286.1570 134.2936
L286.3427 134.3555
" />
<path d="M286.3427 134.3555
L286.4046 134.4174
" />
</g></g>
<g style="fill:none; 
stroke:#000000; stroke-width:0.1500; stroke-opacity:1; 
stroke-linecap:round; stroke-linejoin:round;">
<text x="286.0022" y="185.6500"
textLength="1.4900" font-size="1.7333" lengthAdjust="spacingAndGlyphs"
text-anchor="middle" opacity="0" stroke-opacity="0">D</text>
<g class="stroked-text"><desc>D</desc>
<path d="M285.6617 185.5936
L285.6617 184.2936
" />
<path d="M285.6617 184.2936
L285.9712 184.2936
" />
<path d="M285.9712 184.2936
L286.1570 184.3555
" />
<path d="M286.1570 184.3555
L286.2808 184.4793
" />
<path d="M286.2808 184.4793
L286.3427 184.6031
" />
<path d="M286.3427 184.6031
L286.4046 184.8507
" />
<path d="M286.4046 184.8507
L286.4046 185.0365
" />
<path d="M286.4046 185.0365
L286.3427 185.2841
" />
<path d="M286.3427 185.2841
L286.2808 185.4079
" />
<path d="M286.2808 185.4079
L286.1570 185.5317
" />
<path d="M286.1570 185.5317
L285.9712 185.5936
" />
<path d="M285.9712 185.5936
L285.6617 185.5936
" />
</g></g>
<g style="fill:none; 
stroke:#000000; stroke-width:0.1500; stroke-opacity:1; 
stroke-linecap:round; stroke-linejoin:round;">
<text x="200.0022" y="193.8572"
textLength="7.0071" font-size="2.0000" lengthAdjust="spacingAndGlyphs"
text-anchor="start" opacity="0" stroke-opacity="0">Date: </text>
<g class="stroked-text"><desc>Date: </desc>
<path d="M200.4580 193.7933
L200.4580 192.2933
" />
<path d="M200.4580 192.2933
L200.8152 192.2933
" />
<path d="M200.8152 192.2933
L201.0295 192.3648
" />
<path d="M201.0295 192.3648
L201.1723 192.5076
" />
<path d="M201.1723 192.5076
L201.2437 192.6505
" />
<path d="M201.2437 192.6505
L201.3152 192.9362
" />
<path d="M201.3152 192.9362
L201.3152 193.1505
" />
<path d="M201.3152 193.1505
L201.2437 193.4362
" />
<path d="M201.2437 193.4362
L201.1723 193.5790
" />
<path d="M201.1723 193.5790
L201.0295 193.7219
" />
<path d="M201.0295 193.7219
L200.8152 193.7933
" />
<path d="M200.8152 193.7933
L200.4580 193.7933
" />
<path d="M202.6009 193.7933
L202.6009 193.0076
" />
<path d="M202.6009 193.0076
L202.5295 192.8648
" />
<path d="M202.5295 192.8648
L202.3866 192.7933
" />
<path d="M202.3866 192.7933
L202.1009 192.7933
" />
<path d="M202.1009 192.7933
L201.9580 192.8648
" />
<path d="M202.6009 193.7219
L202.4580 193.7933
" />
<path d="M202.4580 193.7933
L202.1009 193.7933
" />
<path d="M202.1009 193.7933
L201.9580 193.7219
" />
<path d="M201.9580 193.7219
L201.8866 193.5790
" />
<path d="M201.8866 193.5790
L201.8866 193.4362
" />
<path d="M201.8866 193.4362
L201.9580 193.2933
" />
<path d="M201.9580 193.2933
L202.1009 193.2219
" />
<path d="M202.1009 193.2219
L202.4580 193.2219
" />
<path d="M202.4580 193.2219
L202.6009 193.1505
" />
<path d="M203.1009 192.7933
L203.6723 192.7933
" />
<path d="M203.3152 192.2933
L203.3152 193.5790
" />
<path d="M203.3152 193.5790
L203.3866 193.7219
" />
<path d="M203.3866 193.7219
L203.5295 193.7933
" />
<path d="M203.5295 193.7933
L203.6723 193.7933
" />
<path d="M204.7437 193.7219
L204.6009 193.7933
" />
<path d="M204.6009 193.7933
L204.3152 193.7933
" />
<path d="M204.3152 193.7933
L204.1723 193.7219
" />
<path d="M204.1723 193.7219
L204.1009 193.5790
" />
<path d="M204.1009 193.5790
L204.1009 193.0076
" />
<path d="M204.1009 193.0076
L204.1723 192.8648
" />
<path d="M204.1723 192.8648
L204.3152 192.7933
" />
<path d="M204.3152 192.7933
L204.6009 192.7933
" />
<path d="M204.6009 192.7933
L204.7437 192.8648
" />
<path d="M204.7437 192.8648
L204.8152 193.0076
" />
<path d="M204.8152 193.0076
L204.8152 193.1505
" />
<path d="M204.8152 193.1505
L204.1009 193.2933
" />
<path d="M205.4580 193.6505
L205.5295 193.7219
" />
<path d="M205.5295 193.7219
L205.4580 193.7933
" />
<path d="M205.4580 193.7933
L205.3866 193.7219
" />
<path d="M205.3866 193.7219
L205.4580 193.6505
" />
<path d="M205.4580 193.6505
L205.4580 193.7933
" />
<path d="M205.4580 192.8648
L205.5295 192.9362
" />
<path d="M205.5295 192.9362
L205.4580 193.0076
" />
<path d="M205.4580 193.0076
L205.3866 192.9362
" />
<path d="M205.3866 192.9362
L205.4580 192.8648
" />
<path d="M205.4580 192.8648
L205.4580 193.0076
" />
</g></g>
<g style="fill:none; 
stroke:#000000; stroke-width:0.1500; stroke-opacity:1; 
stroke-linecap:round; stroke-linejoin:round;">
<path d="M177.0022 194.5072
L285.0022 194.5072
" />
</g>
<g style="fill:none; 
stroke:#000000; stroke-width:0.1500; stroke-opacity:1; 
stroke-linecap:round; stroke-linejoin:round;">
<text x="178.0022" y="196.6572"
textLength="20.8643" font-size="2.0000" lengthAdjust="spacingAndGlyphs"
text-anchor="start" opacity="0" stroke-opacity="0">KiCad E.D.A. 9.0.0</text>
<g class="stroked-text"><desc>KiCad E.D.A. 9.0.0</desc>
<path d="M178.4580 196.5933
L178.4580 195.0933
" />
<path d="M179.3152 196.5933
L178.6723 195.7362
" />
<path d="M179.3152 195.0933
L178.4580 195.9505
" />
<path d="M179.9580 196.5933
L179.9580 195.5933
" />
<path d="M179.9580 195.0933
L179.8866 195.1648
" />
<path d="M179.8866 195.1648
L179.9580 195.2362
" />
<path d="M179.9580 195.2362
L180.0295 195.1648
" />
<path d="M180.0295 195.1648
L179.9580 195.0933
" />
<path d="M179.9580 195.0933
L179.9580 195.2362
" />
<path d="M181.5295 196.4505
L181.4580 196.5219
" />
<path d="M181.4580 196.5219
L181.2437 196.5933
" />
<path d="M181.2437 196.5933
L181.1009 196.5933
" />
<path d="M181.1009 196.5933
L180.8866 196.5219
" />
<path d="M180.8866 196.5219
L180.7437 196.3790
" />
<path d="M180.7437 196.3790
L180.6723 196.2362
" />
<path d="M180.6723 196.2362
L180.6009 195.9505
" />
<path d="M180.6009 195.9505
L180.6009 195.7362
" />
<path d="M180.6009 195.7362
L180.6723 195.4505
" />
<path d="M180.6723 195.4505
L180.7437 195.3076
" />
<path d="M180.7437 195.3076
L180.8866 195.1648
" />
<path d="M180.8866 195.1648
L181.1009 195.0933
" />
<path d="M181.1009 195.0933
L181.2437 195.0933
" />
<path d="M181.2437 195.0933
L181.4580 195.1648
" />
<path d="M181.4580 195.1648
L181.5295 195.2362
" />
<path d="M182.8152 196.5933
L182.8152 195.8076
" />
<path d="M182.8152 195.8076
L182.7437 195.6648
" />
<path d="M182.7437 195.6648
L182.6009 195.5933
" />
<path d="M182.6009 195.5933
L182.3152 195.5933
" />
<path d="M182.3152 195.5933
L182.1723 195.6648
" />
<path d="M182.8152 196.5219
L182.6723 196.5933
" />
<path d="M182.6723 196.5933
L182.3152 196.5933
" />
<path d="M182.3152 196.5933
L182.1723 196.5219
" />
<path d="M182.1723 196.5219
L182.1009 196.3790
" />
<path d="M182.1009 196.3790
L182.1009 196.2362
" />
<path d="M182.1009 196.2362
L182.1723 196.0933
" />
<path d="M182.1723 196.0933
L182.3152 196.0219
" />
<path d="M182.3152 196.0219
L182.6723 196.0219
" />
<path d="M182.6723 196.0219
L182.8152 195.9505
" />
<path d="M184.1723 196.5933
L184.1723 195.0933
" />
<path d="M184.1723 196.5219
L184.0295 196.5933
" />
<path d="M184.0295 196.5933
L183.7437 196.5933
" />
<path d="M183.7437 196.5933
L183.6009 196.5219
" />
<path d="M183.6009 196.5219
L183.5295 196.4505
" />
<path d="M183.5295 196.4505
L183.4580 196.3076
" />
<path d="M183.4580 196.3076
L183.4580 195.8790
" />
<path d="M183.4580 195.8790
L183.5295 195.7362
" />
<path d="M183.5295 195.7362
L183.6009 195.6648
" />
<path d="M183.6009 195.6648
L183.7437 195.5933
" />
<path d="M183.7437 195.5933
L184.0295 195.5933
" />
<path d="M184.0295 195.5933
L184.1723 195.6648
" />
<path d="M186.0295 195.8076
L186.5295 195.8076
" />
<path d="M186.7437 196.5933
L186.0295 196.5933
" />
<path d="M186.0295 196.5933
L186.0295 195.0933
" />
<path d="M186.0295 195.0933
L186.7437 195.0933
" />
<path d="M187.3866 196.4505
L187.4580 196.5219
" />
<path d="M187.4580 196.5219
L187.3866 196.5933
" />
<path d="M187.3866 196.5933
L187.3152 196.5219
" />
<path d="M187.3152 196.5219
L187.3866 196.4505
" />
<path d="M187.3866 196.4505
L187.3866 196.5933
" />
<path d="M188.1009 196.5933
L188.1009 195.0933
" />
<path d="M188.1009 195.0933
L188.4580 195.0933
" />
<path d="M188.4580 195.0933
L188.6723 195.1648
" />
<path d="M188.6723 195.1648
L188.8152 195.3076
" />
<path d="M188.8152 195.3076
L188.8866 195.4505
" />
<path d="M188.8866 195.4505
L188.9580 195.7362
" />
<path d="M188.9580 195.7362
L188.9580 195.9505
" />
<path d="M188.9580 195.9505
L188.8866 196.2362
" />
<path d="M188.8866 196.2362
L188.8152 196.3790
" />
<path d="M188.8152 196.3790
L188.6723 196.5219
" />
<path d="M188.6723 196.5219
L188.4580 196.5933
" />
<path d="M188.4580 196.5933
L188.1009 196.5933
" />
<path d="M189.6009 196.4505
L189.6723 196.5219
" />
<path d="M189.6723 196.5219
L189.6009 196.5933
" />
<path d="M189.6009 196.5933
L189.5295 196.5219
" />
<path d="M189.5295 196.5219
L189.6009 196.4505
" />
<path d="M189.6009 196.4505
L189.6009 196.5933
" />
<path d="M190.2437 196.1648
L190.9580 196.1648
" />
<path d="M190.1009 196.5933
L190.6009 195.0933
" />
<path d="M190.6009 195.0933
L191.1009 196.5933
" />
<path d="M191.6009 196.4505
L191.6723 196.5219
" />
<path d="M191.6723 196.5219
L191.6009 196.5933
" />
<path d="M191.6009 196.5933
L191.5295 196.5219
" />
<path d="M191.5295 196.5219
L191.6009 196.4505
" />
<path d="M191.6009 196.4505
L191.6009 196.5933
" />
<path d="M193.5295 196.5933
L193.8152 196.5933
" />
<path d="M193.8152 196.5933
L193.9580 196.5219
" />
<path d="M193.9580 196.5219
L194.0295 196.4505
" />
<path d="M194.0295 196.4505
L194.1723 196.2362
" />
<path d="M194.1723 196.2362
L194.2437 195.9505
" />
<path d="M194.2437 195.9505
L194.2437 195.3790
" />
<path d="M194.2437 195.3790
L194.1723 195.2362
" />
<path d="M194.1723 195.2362
L194.1009 195.1648
" />
<path d="M194.1009 195.1648
L193.9580 195.0933
" />
<path d="M193.9580 195.0933
L193.6723 195.0933
" />
<path d="M193.6723 195.0933
L193.5295 195.1648
" />
<path d="M193.5295 195.1648
L193.4580 195.2362
" />
<path d="M193.4580 195.2362
L193.3866 195.3790
" />
<path d="M193.3866 195.3790
L193.3866 195.7362
" />
<path d="M193.3866 195.7362
L193.4580 195.8790
" />
<path d="M193.4580 195.8790
L193.5295 195.9505
" />
<path d="M193.5295 195.9505
L193.6723 196.0219
" />
<path d="M193.6723 196.0219
L193.9580 196.0219
" />
<path d="M193.9580 196.0219
L194.1009 195.9505
" />
<path d="M194.1009 195.9505
L194.1723 195.8790
" />
<path d="M194.1723 195.8790
L194.2437 195.7362
" />
<path d="M194.8866 196.4505
L194.9580 196.5219
" />
<path d="M194.9580 196.5219
L194.8866 196.5933
" />
<path d="M194.8866 196.5933
L194.8152 196.5219
" />
<path d="M194.8152 196.5219
L194.8866 196.4505
" />
<path d="M194.8866 196.4505
L194.8866 196.5933
" />
<path d="M195.8866 195.0933
L196.0295 195.0933
" />
<path d="M196.0295 195.0933
L196.1723 195.1648
" />
<path d="M196.1723 195.1648
L196.2437 195.2362
" />
<path d="M196.2437 195.2362
L196.3152 195.3790
" />
<path d="M196.3152 195.3790
L196.3866 195.6648
" />
<path d="M196.3866 195.6648
L196.3866 196.0219
" />
<path d="M196.3866 196.0219
L196.3152 196.3076
" />
<path d="M196.3152 196.3076
L196.2437 196.4505
" />
<path d="M196.2437 196.4505
L196.1723 196.5219
" />
<path d="M196.1723 196.5219
L196.0295 196.5933
" />
<path d="M196.0295 196.5933
L195.8866 196.5933
" />
<path d="M195.8866 196.5933
L195.7437 196.5219
" />
<path d="M195.7437 196.5219
L195.6723 196.4505
" />
<path d="M195.6723 196.4505
L195.6009 196.3076
" />
<path d="M195.6009 196.3076
L195.5295 196.0219
" />
<path d="M195.5295 196.0219
L195.5295 195.6648
" />
<path d="M195.5295 195.6648
L195.6009 195.3790
" />
<path d="M195.6009 195.3790
L195.6723 195.2362
" />
<path d="M195.6723 195.2362
L195.7437 195.1648
" />
<path d="M195.7437 195.1648
L195.8866 195.0933
" />
<path d="M197.0295 196.4505
L197.1009 196.5219
" />
<path d="M197.1009 196.5219
L197.0295 196.5933
" />
<path d="M197.0295 196.5933
L196.9580 196.5219
" />
<path d="M196.9580 196.5219
L197.0295 196.4505
" />
<path d="M197.0295 196.4505
L197.0295 196.5933
" />
<path d="M198.0295 195.0933
L198.1723 195.0933
" />
<path d="M198.1723 195.0933
L198.3152 195.1648
" />
<path d="M198.3152 195.1648
L198.3866 195.2362
" />
<path d="M198.3866 195.2362
L198.4580 195.3790
" />
<path d="M198.4580 195.3790
L198.5295 195.6648
" />
<path d="M198.5295 195.6648
L198.5295 196.0219
" />
<path d="M198.5295 196.0219
L198.4580 196.3076
" />
<path d="M198.4580 196.3076
L198.3866 196.4505
" />
<path d="M198.3866 196.4505
L198.3152 196.5219
" />
<path d="M198.3152 196.5219
L198.1723 196.5933
" />
<path d="M198.1723 196.5933
L198.0295 196.5933
" />
<path d="M198.0295 196.5933
L197.8866 196.5219
" />
<path d="M197.8866 196.5219
L197.8152 196.4505
" />
<path d="M197.8152 196.4505
L197.7437 196.3076
" />
<path d="M197.7437 196.3076
L197.6723 196.0219
" />
<path d="M197.6723 196.0219
L197.6723 195.6648
" />
<path d="M197.6723 195.6648
L197.7437 195.3790
" />
<path d="M197.7437 195.3790
L197.8152 195.2362
" />
<path d="M197.8152 195.2362
L197.8866 195.1648
" />
<path d="M197.8866 195.1648
L198.0295 195.0933
" />
</g></g>
<g style="fill:none; 
stroke:#000000; stroke-width:0.1500; stroke-opacity:1; 
stroke-linecap:round; stroke-linejoin:round;">
<path d="M177.0022 191.5072
L285.0022 191.5072
" />
</g>
<g style="fill:none; 
stroke:#000000; stroke-width:0.3000; stroke-opacity:1; 
stroke-linecap:round; stroke-linejoin:round;">
<text x="263.0022" y="193.8572"
textLength="6.3857" font-size="2.0000" lengthAdjust="spacingAndGlyphs"
text-anchor="start" opacity="0" stroke-opacity="0">Rev: </text>
<g class="stroked-text"><desc>Rev: </desc>
<path d="M264.4139 193.7855
L263.9139 193.0712
" />
<path d="M263.5567 193.7855
L263.5567 192.2855
" />
<path d="M263.5567 192.2855
L264.1281 192.2855
" />
<path d="M264.1281 192.2855
L264.2710 192.3570
" />
<path d="M264.2710 192.3570
L264.3424 192.4284
" />
<path d="M264.3424 192.4284
L264.4139 192.5712
" />
<path d="M264.4139 192.5712
L264.4139 192.7855
" />
<path d="M264.4139 192.7855
L264.3424 192.9284
" />
<path d="M264.3424 192.9284
L264.2710 192.9998
" />
<path d="M264.2710 192.9998
L264.1281 193.0712
" />
<path d="M264.1281 193.0712
L263.5567 193.0712
" />
<path d="M265.6281 193.7141
L265.4853 193.7855
" />
<path d="M265.4853 193.7855
L265.1996 193.7855
" />
<path d="M265.1996 193.7855
L265.0567 193.7141
" />
<path d="M265.0567 193.7141
L264.9853 193.5712
" />
<path d="M264.9853 193.5712
L264.9853 192.9998
" />
<path d="M264.9853 192.9998
L265.0567 192.8570
" />
<path d="M265.0567 192.8570
L265.1996 192.7855
" />
<path d="M265.1996 192.7855
L265.4853 192.7855
" />
<path d="M265.4853 192.7855
L265.6281 192.8570
" />
<path d="M265.6281 192.8570
L265.6996 192.9998
" />
<path d="M265.6996 192.9998
L265.6996 193.1427
" />
<path d="M265.6996 193.1427
L264.9853 193.2855
" />
<path d="M266.1996 192.7855
L266.5567 193.7855
" />
<path d="M266.5567 193.7855
L266.9139 192.7855
" />
<path d="M267.4853 193.6427
L267.5567 193.7141
" />
<path d="M267.5567 193.7141
L267.4853 193.7855
" />
<path d="M267.4853 193.7855
L267.4139 193.7141
" />
<path d="M267.4139 193.7141
L267.4853 193.6427
" />
<path d="M267.4853 193.6427
L267.4853 193.7855
" />
<path d="M267.4853 192.8570
L267.5567 192.9284
" />
<path d="M267.5567 192.9284
L267.4853 192.9998
" />
<path d="M267.4853 192.9998
L267.4139 192.9284
" />
<path d="M267.4139 192.9284
L267.4853 192.8570
" />
<path d="M267.4853 192.8570
L267.4853 192.9998
" />
</g></g>
<g style="fill:none; 
stroke:#000000; stroke-width:0.1500; stroke-opacity:1; 
stroke-linecap:round; stroke-linejoin:round;">
<text x="178.0022" y="193.8572"
textLength="9.3643" font-size="2.0000" lengthAdjust="spacingAndGlyphs"
text-anchor="start" opacity="0" stroke-opacity="0">Size: A4</text>
<g class="stroked-text"><desc>Size: A4</desc>
<path d="M178.3866 193.7219
L178.6009 193.7933
" />
<path d="M178.6009 193.7933
L178.9580 193.7933
" />
<path d="M178.9580 193.7933
L179.1009 193.7219
" />
<path d="M179.1009 193.7219
L179.1723 193.6505
" />
<path d="M179.1723 193.6505
L179.2437 193.5076
" />
<path d="M179.2437 193.5076
L179.2437 193.3648
" />
<path d="M179.2437 193.3648
L179.1723 193.2219
" />
<path d="M179.1723 193.2219
L179.1009 193.1505
" />
<path d="M179.1009 193.1505
L178.9580 193.0790
" />
<path d="M178.9580 193.0790
L178.6723 193.0076
" />
<path d="M178.6723 193.0076
L178.5295 192.9362
" />
<path d="M178.5295 192.9362
L178.4580 192.8648
" />
<path d="M178.4580 192.8648
L178.3866 192.7219
" />
<path d="M178.3866 192.7219
L178.3866 192.5790
" />
<path d="M178.3866 192.5790
L178.4580 192.4362
" />
<path d="M178.4580 192.4362
L178.5295 192.3648
" />
<path d="M178.5295 192.3648
L178.6723 192.2933
" />
<path d="M178.6723 192.2933
L179.0295 192.2933
" />
<path d="M179.0295 192.2933
L179.2437 192.3648
" />
<path d="M179.8866 193.7933
L179.8866 192.7933
" />
<path d="M179.8866 192.2933
L179.8152 192.3648
" />
<path d="M179.8152 192.3648
L179.8866 192.4362
" />
<path d="M179.8866 192.4362
L179.9580 192.3648
" />
<path d="M179.9580 192.3648
L179.8866 192.2933
" />
<path d="M179.8866 192.2933
L179.8866 192.4362
" />
<path d="M180.4580 192.7933
L181.2437 192.7933
" />
<path d="M181.2437 192.7933
L180.4580 193.7933
" />
<path d="M180.4580 193.7933
L181.2437 193.7933
" />
<path d="M182.3866 193.7219
L182.2437 193.7933
" />
<path d="M182.2437 193.7933
L181.9580 193.7933
" />
<path d="M181.9580 193.7933
L181.8152 193.7219
" />
<path d="M181.8152 193.7219
L181.7437 193.5790
" />
<path d="M181.7437 193.5790
L181.7437 193.0076
" />
<path d="M181.7437 193.0076
L181.8152 192.8648
" />
<path d="M181.8152 192.8648
L181.9580 192.7933
" />
<path d="M181.9580 192.7933
L182.2437 192.7933
" />
<path d="M182.2437 192.7933
L182.3866 192.8648
" />
<path d="M182.3866 192.8648
L182.4580 193.0076
" />
<path d="M182.4580 193.0076
L182.4580 193.1505
" />
<path d="M182.4580 193.1505
L181.7437 193.2933
" />
<path d="M183.1009 193.6505
L183.1723 193.7219
" />
<path d="M183.1723 193.7219
L183.1009 193.7933
" />
<path d="M183.1009 193.7933
L183.0295 193.7219
" />
<path d="M183.0295 193.7219
L183.1009 193.6505
" />
<path d="M183.1009 193.6505
L183.1009 193.7933
" />
<path d="M183.1009 192.8648
L183.1723 192.9362
" />
<path d="M183.1723 192.9362
L183.1009 193.0076
" />
<path d="M183.1009 193.0076
L183.0295 192.9362
" />
<path d="M183.0295 192.9362
L183.1009 192.8648
" />
<path d="M183.1009 192.8648
L183.1009 193.0076
" />
<path d="M184.8866 193.3648
L185.6009 193.3648
" />
<path d="M184.7437 193.7933
L185.2437 192.2933
" />
<path d="M185.2437 192.2933
L185.7437 193.7933
" />
<path d="M186.8866 192.7933
L186.8866 193.7933
" />
<path d="M186.5295 192.2219
L186.1723 193.2933
" />
<path d="M186.1723 193.2933
L187.1009 193.2933
" />
</g></g>
<g style="fill:none; 
stroke:#000000; stroke-width:0.1500; stroke-opacity:1; 
stroke-linecap:round; stroke-linejoin:round;">
<text x="263.0022" y="196.6572"
textLength="8.5071" font-size="2.0000" lengthAdjust="spacingAndGlyphs"
text-anchor="start" opacity="0" stroke-opacity="0">Id: 6/7</text>
<g class="stroked-text"><desc>Id: 6/7</desc>
<path d="M263.4580 196.5933
L263.4580 195.0933
" />
<path d="M264.8152 196.5933
L264.8152 195.0933
" />
<path d="M264.8152 196.5219
L264.6723 196.5933
" />
<path d="M264.6723 196.5933
L264.3866 196.5933
" />
<path d="M264.3866 196.5933
L264.2437 196.5219
" />
<path d="M264.2437 196.5219
L264.1723 196.4505
" />
<path d="M264.1723 196.4505
L264.1009 196.3076
" />
<path d="M264.1009 196.3076
L264.1009 195.8790
" />
<path d="M264.1009 195.8790
L264.1723 195.7362
" />
<path d="M264.1723 195.7362
L264.2437 195.6648
" />
<path d="M264.2437 195.6648
L264.3866 195.5933
" />
<path d="M264.3866 195.5933
L264.6723 195.5933
" />
<path d="M264.6723 195.5933
L264.8152 195.6648
" />
<path d="M265.5295 196.4505
L265.6009 196.5219
" />
<path d="M265.6009 196.5219
L265.5295 196.5933
" />
<path d="M265.5295 196.5933
L265.4580 196.5219
" />
<path d="M265.4580 196.5219
L265.5295 196.4505
" />
<path d="M265.5295 196.4505
L265.5295 196.5933
" />
<path d="M265.5295 195.6648
L265.6009 195.7362
" />
<path d="M265.6009 195.7362
L265.5295 195.8076
" />
<path d="M265.5295 195.8076
L265.4580 195.7362
" />
<path d="M265.4580 195.7362
L265.5295 195.6648
" />
<path d="M265.5295 195.6648
L265.5295 195.8076
" />
<path d="M268.0295 195.0933
L267.7437 195.0933
" />
<path d="M267.7437 195.0933
L267.6009 195.1648
" />
<path d="M267.6009 195.1648
L267.5295 195.2362
" />
<path d="M267.5295 195.2362
L267.3866 195.4505
" />
<path d="M267.3866 195.4505
L267.3152 195.7362
" />
<path d="M267.3152 195.7362
L267.3152 196.3076
" />
<path d="M267.3152 196.3076
L267.3866 196.4505
" />
<path d="M267.3866 196.4505
L267.4580 196.5219
" />
<path d="M267.4580 196.5219
L267.6009 196.5933
" />
<path d="M267.6009 196.5933
L267.8866 196.5933
" />
<path d="M267.8866 196.5933
L268.0295 196.5219
" />
<path d="M268.0295 196.5219
L268.1009 196.4505
" />
<path d="M268.1009 196.4505
L268.1723 196.3076
" />
<path d="M268.1723 196.3076
L268.1723 195.9505
" />
<path d="M268.1723 195.9505
L268.1009 195.8076
" />
<path d="M268.1009 195.8076
L268.0295 195.7362
" />
<path d="M268.0295 195.7362
L267.8866 195.6648
" />
<path d="M267.8866 195.6648
L267.6009 195.6648
" />
<path d="M267.6009 195.6648
L267.4580 195.7362
" />
<path d="M267.4580 195.7362
L267.3866 195.8076
" />
<path d="M267.3866 195.8076
L267.3152 195.9505
" />
<path d="M269.8866 195.0219
L268.6009 196.9505
" />
<path d="M270.2437 195.0933
L271.2437 195.0933
" />
<path d="M271.2437 195.0933
L270.6009 196.5933
" />
</g></g>
<g style="fill:none; 
stroke:#000000; stroke-width:0.1500; stroke-opacity:1; 
stroke-linecap:round; stroke-linejoin:round;">
<path d="M177.0022 187.5072
L285.0022 187.5072
" />
</g>
<g style="fill:none; 
stroke:#000000; stroke-width:0.4000; stroke-opacity:1; 
stroke-linecap:round; stroke-linejoin:round;">
<text x="178.0022" y="190.3072"
textLength="9.6571" font-size="2.6667" lengthAdjust="spacingAndGlyphs"
text-anchor="start" opacity="0" stroke-opacity="0">Title: </text>
<g class="stroked-text"><desc>Title: </desc>
<path d="M178.6939 188.2116
L179.8368 188.2116
" />
<path d="M179.0154 190.2116
L179.2654 188.2116
" />
<path d="M180.2535 190.2116
L180.4201 188.8783
" />
<path d="M180.5035 188.2116
L180.3963 188.3069
" />
<path d="M180.3963 188.3069
L180.4796 188.4021
" />
<path d="M180.4796 188.4021
L180.5868 188.3069
" />
<path d="M180.5868 188.3069
L180.5035 188.2116
" />
<path d="M180.5035 188.2116
L180.4796 188.4021
" />
<path d="M181.0868 188.8783
L181.8487 188.8783
" />
<path d="M181.4558 188.2116
L181.2415 189.9259
" />
<path d="M181.2415 189.9259
L181.3130 190.1164
" />
<path d="M181.3130 190.1164
L181.4915 190.2116
" />
<path d="M181.4915 190.2116
L181.6820 190.2116
" />
<path d="M182.6344 190.2116
L182.4558 190.1164
" />
<path d="M182.4558 190.1164
L182.3844 189.9259
" />
<path d="M182.3844 189.9259
L182.5987 188.2116
" />
<path d="M184.1701 190.1164
L183.9677 190.2116
" />
<path d="M183.9677 190.2116
L183.5868 190.2116
" />
<path d="M183.5868 190.2116
L183.4082 190.1164
" />
<path d="M183.4082 190.1164
L183.3368 189.9259
" />
<path d="M183.3368 189.9259
L183.4320 189.1640
" />
<path d="M183.4320 189.1640
L183.5511 188.9735
" />
<path d="M183.5511 188.9735
L183.7535 188.8783
" />
<path d="M183.7535 188.8783
L184.1344 188.8783
" />
<path d="M184.1344 188.8783
L184.3130 188.9735
" />
<path d="M184.3130 188.9735
L184.3844 189.1640
" />
<path d="M184.3844 189.1640
L184.3606 189.3545
" />
<path d="M184.3606 189.3545
L183.3844 189.5450
" />
<path d="M185.1344 190.0212
L185.2177 190.1164
" />
<path d="M185.2177 190.1164
L185.1106 190.2116
" />
<path d="M185.1106 190.2116
L185.0273 190.1164
" />
<path d="M185.0273 190.1164
L185.1344 190.0212
" />
<path d="M185.1344 190.0212
L185.1106 190.2116
" />
<path d="M185.2654 188.9735
L185.3487 189.0688
" />
<path d="M185.3487 189.0688
L185.2415 189.1640
" />
<path d="M185.2415 189.1640
L185.1582 189.0688
" />
<path d="M185.1582 189.0688
L185.2654 188.9735
" />
<path d="M185.2654 188.9735
L185.2415 189.1640
" />
</g></g>
<g style="fill:none; 
stroke:#000000; stroke-width:0.1500; stroke-opacity:1; 
stroke-linecap:round; stroke-linejoin:round;">
<text x="178.0022" y="186.4572"
textLength="27.8643" font-size="2.0000" lengthAdjust="spacingAndGlyphs"
text-anchor="start" opacity="0" stroke-opacity="0">File: det-mcu.kicad_pcb</text>
<g class="stroked-text"><desc>File: det-mcu.kicad_pcb</desc>
<path d="M178.9580 185.6076
L178.4580 185.6076
" />
<path d="M178.4580 186.3933
L178.4580 184.8933
" />
<path d="M178.4580 184.8933
L179.1723 184.8933
" />
<path d="M179.7437 186.3933
L179.7437 185.3933
" />
<path d="M179.7437 184.8933
L179.6723 184.9648
" />
<path d="M179.6723 184.9648
L179.7437 185.0362
" />
<path d="M179.7437 185.0362
L179.8152 184.9648
" />
<path d="M179.8152 184.9648
L179.7437 184.8933
" />
<path d="M179.7437 184.8933
L179.7437 185.0362
" />
<path d="M180.6723 186.3933
L180.5295 186.3219
" />
<path d="M180.5295 186.3219
L180.4580 186.1790
" />
<path d="M180.4580 186.1790
L180.4580 184.8933
" />
<path d="M181.8152 186.3219
L181.6723 186.3933
" />
<path d="M181.6723 186.3933
L181.3866 186.3933
" />
<path d="M181.3866 186.3933
L181.2437 186.3219
" />
<path d="M181.2437 186.3219
L181.1723 186.1790
" />
<path d="M181.1723 186.1790
L181.1723 185.6076
" />
<path d="M181.1723 185.6076
L181.2437 185.4648
" />
<path d="M181.2437 185.4648
L181.3866 185.3933
" />
<path d="M181.3866 185.3933
L181.6723 185.3933
" />
<path d="M181.6723 185.3933
L181.8152 185.4648
" />
<path d="M181.8152 185.4648
L181.8866 185.6076
" />
<path d="M181.8866 185.6076
L181.8866 185.7505
" />
<path d="M181.8866 185.7505
L181.1723 185.8933
" />
<path d="M182.5295 186.2505
L182.6009 186.3219
" />
<path d="M182.6009 186.3219
L182.5295 186.3933
" />
<path d="M182.5295 186.3933
L182.4580 186.3219
" />
<path d="M182.4580 186.3219
L182.5295 186.2505
" />
<path d="M182.5295 186.2505
L182.5295 186.3933
" />
<path d="M182.5295 185.4648
L182.6009 185.5362
" />
<path d="M182.6009 185.5362
L182.5295 185.6076
" />
<path d="M182.5295 185.6076
L182.4580 185.5362
" />
<path d="M182.4580 185.5362
L182.5295 185.4648
" />
<path d="M182.5295 185.4648
L182.5295 185.6076
" />
<path d="M185.0295 186.3933
L185.0295 184.8933
" />
<path d="M185.0295 186.3219
L184.8866 186.3933
" />
<path d="M184.8866 186.3933
L184.6009 186.3933
" />
<path d="M184.6009 186.3933
L184.4580 186.3219
" />
<path d="M184.4580 186.3219
L184.3866 186.2505
" />
<path d="M184.3866 186.2505
L184.3152 186.1076
" />
<path d="M184.3152 186.1076
L184.3152 185.6790
" />
<path d="M184.3152 185.6790
L184.3866 185.5362
" />
<path d="M184.3866 185.5362
L184.4580 185.4648
" />
<path d="M184.4580 185.4648
L184.6009 185.3933
" />
<path d="M184.6009 185.3933
L184.8866 185.3933
" />
<path d="M184.8866 185.3933
L185.0295 185.4648
" />
<path d="M186.3152 186.3219
L186.1723 186.3933
" />
<path d="M186.1723 186.3933
L185.8866 186.3933
" />
<path d="M185.8866 186.3933
L185.7437 186.3219
" />
<path d="M185.7437 186.3219
L185.6723 186.1790
" />
<path d="M185.6723 186.1790
L185.6723 185.6076
" />
<path d="M185.6723 185.6076
L185.7437 185.4648
" />
<path d="M185.7437 185.4648
L185.8866 185.3933
" />
<path d="M185.8866 185.3933
L186.1723 185.3933
" />
<path d="M186.1723 185.3933
L186.3152 185.4648
" />
<path d="M186.3152 185.4648
L186.3866 185.6076
" />
<path d="M186.3866 185.6076
L186.3866 185.7505
" />
<path d="M186.3866 185.7505
L185.6723 185.8933
" />
<path d="M186.8152 185.3933
L187.3866 185.3933
" />
<path d="M187.0295 184.8933
L187.0295 186.1790
" />
<path d="M187.0295 186.1790
L187.1009 186.3219
" />
<path d="M187.1009 186.3219
L187.2437 186.3933
" />
<path d="M187.2437 186.3933
L187.3866 186.3933
" />
<path d="M187.8866 185.8219
L189.0295 185.8219
" />
<path d="M189.7437 186.3933
L189.7437 185.3933
" />
<path d="M189.7437 185.5362
L189.8152 185.4648
" />
<path d="M189.8152 185.4648
L189.9580 185.3933
" />
<path d="M189.9580 185.3933
L190.1723 185.3933
" />
<path d="M190.1723 185.3933
L190.3152 185.4648
" />
<path d="M190.3152 185.4648
L190.3866 185.6076
" />
<path d="M190.3866 185.6076
L190.3866 186.3933
" />
<path d="M190.3866 185.6076
L190.4580 185.4648
" />
<path d="M190.4580 185.4648
L190.6009 185.3933
" />
<path d="M190.6009 185.3933
L190.8152 185.3933
" />
<path d="M190.8152 185.3933
L190.9580 185.4648
" />
<path d="M190.9580 185.4648
L191.0295 185.6076
" />
<path d="M191.0295 185.6076
L191.0295 186.3933
" />
<path d="M192.3866 186.3219
L192.2437 186.3933
" />
<path d="M192.2437 186.3933
L191.9580 186.3933
" />
<path d="M191.9580 186.3933
L191.8152 186.3219
" />
<path d="M191.8152 186.3219
L191.7437 186.2505
" />
<path d="M191.7437 186.2505
L191.6723 186.1076
" />
<path d="M191.6723 186.1076
L191.6723 185.6790
" />
<path d="M191.6723 185.6790
L191.7437 185.5362
" />
<path d="M191.7437 185.5362
L191.8152 185.4648
" />
<path d="M191.8152 185.4648
L191.9580 185.3933
" />
<path d="M191.9580 185.3933
L192.2437 185.3933
" />
<path d="M192.2437 185.3933
L192.3866 185.4648
" />
<path d="M193.6723 185.3933
L193.6723 186.3933
" />
<path d="M193.0295 185.3933
L193.0295 186.1790
" />
<path d="M193.0295 186.1790
L193.1009 186.3219
" />
<path d="M193.1009 186.3219
L193.2437 186.3933
" />
<path d="M193.2437 186.3933
L193.4580 186.3933
" />
<path d="M193.4580 186.3933
L193.6009 186.3219
" />
<path d="M193.6009 186.3219
L193.6723 186.2505
" />
<path d="M194.3866 186.2505
L194.4580 186.3219
" />
<path d="M194.4580 186.3219
L194.3866 186.3933
" />
<path d="M194.3866 186.3933
L194.3152 186.3219
" />
<path d="M194.3152 186.3219
L194.3866 186.2505
" />
<path d="M194.3866 186.2505
L194.3866 186.3933
" />
<path d="M195.1009 186.3933
L195.1009 184.8933
" />
<path d="M195.2437 185.8219
L195.6723 186.3933
" />
<path d="M195.6723 185.3933
L195.1009 185.9648
" />
<path d="M196.3152 186.3933
L196.3152 185.3933
" />
<path d="M196.3152 184.8933
L196.2437 184.9648
" />
<path d="M196.2437 184.9648
L196.3152 185.0362
" />
<path d="M196.3152 185.0362
L196.3866 184.9648
" />
<path d="M196.3866 184.9648
L196.3152 184.8933
" />
<path d="M196.3152 184.8933
L196.3152 185.0362
" />
<path d="M197.6723 186.3219
L197.5295 186.3933
" />
<path d="M197.5295 186.3933
L197.2437 186.3933
" />
<path d="M197.2437 186.3933
L197.1009 186.3219
" />
<path d="M197.1009 186.3219
L197.0295 186.2505
" />
<path d="M197.0295 186.2505
L196.9580 186.1076
" />
<path d="M196.9580 186.1076
L196.9580 185.6790
" />
<path d="M196.9580 185.6790
L197.0295 185.5362
" />
<path d="M197.0295 185.5362
L197.1009 185.4648
" />
<path d="M197.1009 185.4648
L197.2437 185.3933
" />
<path d="M197.2437 185.3933
L197.5295 185.3933
" />
<path d="M197.5295 185.3933
L197.6723 185.4648
" />
<path d="M198.9580 186.3933
L198.9580 185.6076
" />
<path d="M198.9580 185.6076
L198.8866 185.4648
" />
<path d="M198.8866 185.4648
L198.7437 185.3933
" />
<path d="M198.7437 185.3933
L198.4580 185.3933
" />
<path d="M198.4580 185.3933
L198.3152 185.4648
" />
<path d="M198.9580 186.3219
L198.8152 186.3933
" />
<path d="M198.8152 186.3933
L198.4580 186.3933
" />
<path d="M198.4580 186.3933
L198.3152 186.3219
" />
<path d="M198.3152 186.3219
L198.2437 186.1790
" />
<path d="M198.2437 186.1790
L198.2437 186.0362
" />
<path d="M198.2437 186.0362
L198.3152 185.8933
" />
<path d="M198.3152 185.8933
L198.4580 185.8219
" />
<path d="M198.4580 185.8219
L198.8152 185.8219
" />
<path d="M198.8152 185.8219
L198.9580 185.7505
" />
<path d="M200.3152 186.3933
L200.3152 184.8933
" />
<path d="M200.3152 186.3219
L200.1723 186.3933
" />
<path d="M200.1723 186.3933
L199.8866 186.3933
" />
<path d="M199.8866 186.3933
L199.7437 186.3219
" />
<path d="M199.7437 186.3219
L199.6723 186.2505
" />
<path d="M199.6723 186.2505
L199.6009 186.1076
" />
<path d="M199.6009 186.1076
L199.6009 185.6790
" />
<path d="M199.6009 185.6790
L199.6723 185.5362
" />
<path d="M199.6723 185.5362
L199.7437 185.4648
" />
<path d="M199.7437 185.4648
L199.8866 185.3933
" />
<path d="M199.8866 185.3933
L200.1723 185.3933
" />
<path d="M200.1723 185.3933
L200.3152 185.4648
" />
<path d="M200.6723 186.5362
L201.8152 186.5362
" />
<path d="M202.1723 185.3933
L202.1723 186.8933
" />
<path d="M202.1723 185.4648
L202.3152 185.3933
" />
<path d="M202.3152 185.3933
L202.6009 185.3933
" />
<path d="M202.6009 185.3933
L202.7437 185.4648
" />
<path d="M202.7437 185.4648
L202.8152 185.5362
" />
<path d="M202.8152 185.5362
L202.8866 185.6790
" />
<path d="M202.8866 185.6790
L202.8866 186.1076
" />
<path d="M202.8866 186.1076
L202.8152 186.2505
" />
<path d="M202.8152 186.2505
L202.7437 186.3219
" />
<path d="M202.7437 186.3219
L202.6009 186.3933
" />
<path d="M202.6009 186.3933
L202.3152 186.3933
" />
<path d="M202.3152 186.3933
L202.1723 186.3219
" />
<path d="M204.1723 186.3219
L204.0295 186.3933
" />
<path d="M204.0295 186.3933
L203.7437 186.3933
" />
<path d="M203.7437 186.3933
L203.6009 186.3219
" />
<path d="M203.6009 186.3219
L203.5295 186.2505
" />
<path d="M203.5295 186.2505
L203.4580 186.1076
" />
<path d="M203.4580 186.1076
L203.4580 185.6790
" />
<path d="M203.4580 185.6790
L203.5295 185.5362
" />
<path d="M203.5295 185.5362
L203.6009 185.4648
" />
<path d="M203.6009 185.4648
L203.7437 185.3933
" />
<path d="M203.7437 185.3933
L204.0295 185.3933
" />
<path d="M204.0295 185.3933
L204.1723 185.4648
" />
<path d="M204.8152 186.3933
L204.8152 184.8933
" />
<path d="M204.8152 185.4648
L204.9580 185.3933
" />
<path d="M204.9580 185.3933
L205.2437 185.3933
" />
<path d="M205.2437 185.3933
L205.3866 185.4648
" />
<path d="M205.3866 185.4648
L205.4580 185.5362
" />
<path d="M205.4580 185.5362
L205.5295 185.6790
" />
<path d="M205.5295 185.6790
L205.5295 186.1076
" />
<path d="M205.5295 186.1076
L205.4580 186.2505
" />
<path d="M205.4580 186.2505
L205.3866 186.3219
" />
<path d="M205.3866 186.3219
L205.2437 186.3933
" />
<path d="M205.2437 186.3933
L204.9580 186.3933
" />
<path d="M204.9580 186.3933
L204.8152 186.3219
" />
</g></g>
<g style="fill:none; 
stroke:#000000; stroke-width:0.1500; stroke-opacity:1; 
stroke-linecap:round; stroke-linejoin:round;">
<path d="M177.0022 181.5072
L285.0022 181.5072
" />
</g>
<g style="fill:none; 
stroke:#000000; stroke-width:0.1500; stroke-opacity:1; 
stroke-linecap:round; stroke-linejoin:round;">
<text x="178.0022" y="183.7572"
textLength="8.2214" font-size="2.0000" lengthAdjust="spacingAndGlyphs"
text-anchor="start" opacity="0" stroke-opacity="0">Sheet: </text>
<g class="stroked-text"><desc>Sheet: </desc>
<path d="M178.3866 183.6219
L178.6009 183.6933
" />
<path d="M178.6009 183.6933
L178.9580 183.6933
" />
<path d="M178.9580 183.6933
L179.1009 183.6219
" />
<path d="M179.1009 183.6219
L179.1723 183.5505
" />
<path d="M179.1723 183.5505
L179.2437 183.4076
" />
<path d="M179.2437 183.4076
L179.2437 183.2648
" />
<path d="M179.2437 183.2648
L179.1723 183.1219
" />
<path d="M179.1723 183.1219
L179.1009 183.0505
" />
<path d="M179.1009 183.0505
L178.9580 182.9790
" />
<path d="M178.9580 182.9790
L178.6723 182.9076
" />
<path d="M178.6723 182.9076
L178.5295 182.8362
" />
<path d="M178.5295 182.8362
L178.4580 182.7648
" />
<path d="M178.4580 182.7648
L178.3866 182.6219
" />
<path d="M178.3866 182.6219
L178.3866 182.4790
" />
<path d="M178.3866 182.4790
L178.4580 182.3362
" />
<path d="M178.4580 182.3362
L178.5295 182.2648
" />
<path d="M178.5295 182.2648
L178.6723 182.1933
" />
<path d="M178.6723 182.1933
L179.0295 182.1933
" />
<path d="M179.0295 182.1933
L179.2437 182.2648
" />
<path d="M179.8866 183.6933
L179.8866 182.1933
" />
<path d="M180.5295 183.6933
L180.5295 182.9076
" />
<path d="M180.5295 182.9076
L180.4580 182.7648
" />
<path d="M180.4580 182.7648
L180.3152 182.6933
" />
<path d="M180.3152 182.6933
L180.1009 182.6933
" />
<path d="M180.1009 182.6933
L179.9580 182.7648
" />
<path d="M179.9580 182.7648
L179.8866 182.8362
" />
<path d="M181.8152 183.6219
L181.6723 183.6933
" />
<path d="M181.6723 183.6933
L181.3866 183.6933
" />
<path d="M181.3866 183.6933
L181.2437 183.6219
" />
<path d="M181.2437 183.6219
L181.1723 183.4790
" />
<path d="M181.1723 183.4790
L181.1723 182.9076
" />
<path d="M181.1723 182.9076
L181.2437 182.7648
" />
<path d="M181.2437 182.7648
L181.3866 182.6933
" />
<path d="M181.3866 182.6933
L181.6723 182.6933
" />
<path d="M181.6723 182.6933
L181.8152 182.7648
" />
<path d="M181.8152 182.7648
L181.8866 182.9076
" />
<path d="M181.8866 182.9076
L181.8866 183.0505
" />
<path d="M181.8866 183.0505
L181.1723 183.1933
" />
<path d="M183.1009 183.6219
L182.9580 183.6933
" />
<path d="M182.9580 183.6933
L182.6723 183.6933
" />
<path d="M182.6723 183.6933
L182.5295 183.6219
" />
<path d="M182.5295 183.6219
L182.4580 183.4790
" />
<path d="M182.4580 183.4790
L182.4580 182.9076
" />
<path d="M182.4580 182.9076
L182.5295 182.7648
" />
<path d="M182.5295 182.7648
L182.6723 182.6933
" />
<path d="M182.6723 182.6933
L182.9580 182.6933
" />
<path d="M182.9580 182.6933
L183.1009 182.7648
" />
<path d="M183.1009 182.7648
L183.1723 182.9076
" />
<path d="M183.1723 182.9076
L183.1723 183.0505
" />
<path d="M183.1723 183.0505
L182.4580 183.1933
" />
<path d="M183.6009 182.6933
L184.1723 182.6933
" />
<path d="M183.8152 182.1933
L183.8152 183.4790
" />
<path d="M183.8152 183.4790
L183.8866 183.6219
" />
<path d="M183.8866 183.6219
L184.0295 183.6933
" />
<path d="M184.0295 183.6933
L184.1723 183.6933
" />
<path d="M184.6723 183.5505
L184.7437 183.6219
" />
<path d="M184.7437 183.6219
L184.6723 183.6933
" />
<path d="M184.6723 183.6933
L184.6009 183.6219
" />
<path d="M184.6009 183.6219
L184.6723 183.5505
" />
<path d="M184.6723 183.5505
L184.6723 183.6933
" />
<path d="M184.6723 182.7648
L184.7437 182.8362
" />
<path d="M184.7437 182.8362
L184.6723 182.9076
" />
<path d="M184.6723 182.9076
L184.6009 182.8362
" />
<path d="M184.6009 182.8362
L184.6723 182.7648
" />
<path d="M184.6723 182.7648
L184.6723 182.9076
" />
</g></g>
<g style="fill:none; 
stroke:#000000; stroke-width:0.3000; stroke-opacity:1; 
stroke-linecap:round; stroke-linejoin:round;">
<text x="178.0022" y="180.7572"
textLength="0.9000" font-size="2.0000" lengthAdjust="spacingAndGlyphs"
text-anchor="start" opacity="0" stroke-opacity="0"></text>
<g class="stroked-text"><desc></desc>
</g></g>
<g style="fill:none; 
stroke:#000000; stroke-width:0.1500; stroke-opacity:1; 
stroke-linecap:round; stroke-linejoin:round;">
<text x="178.0022" y="177.7572"
textLength="0.4500" font-size="2.0000" lengthAdjust="spacingAndGlyphs"
text-anchor="start" opacity="0" stroke-opacity="0"></text>
<g class="stroked-text"><desc></desc>
</g></g>
<g style="fill:none; 
stroke:#000000; stroke-width:0.1500; stroke-opacity:1; 
stroke-linecap:round; stroke-linejoin:round;">
<text x="178.0022" y="174.7572"
textLength="0.4500" font-size="2.0000" lengthAdjust="spacingAndGlyphs"
text-anchor="start" opacity="0" stroke-opacity="0"></text>
<g class="stroked-text"><desc></desc>
</g></g>
<g style="fill:none; 
stroke:#000000; stroke-width:0.1500; stroke-opacity:1; 
stroke-linecap:round; stroke-linejoin:round;">
<text x="178.0022" y="171.7572"
textLength="0.4500" font-size="2.0000" lengthAdjust="spacingAndGlyphs"
text-anchor="start" opacity="0" stroke-opacity="0"></text>
<g class="stroked-text"><desc></desc>
</g></g>
<g style="fill:none; 
stroke:#000000; stroke-width:0.1500; stroke-opacity:1; 
stroke-linecap:round; stroke-linejoin:round;">
<text x="178.0022" y="168.7572"
textLength="0.4500" font-size="2.0000" lengthAdjust="spacingAndGlyphs"
text-anchor="start" opacity="0" stroke-opacity="0"></text>
<g class="stroked-text"><desc></desc>
</g></g>
<g style="fill:none; 
stroke:#000000; stroke-width:0.1500; stroke-opacity:1; 
stroke-linecap:round; stroke-linejoin:round;">
<path d="M197.0022 191.5072
L197.0022 194.5072
" />
</g>
<g style="fill:none; 
stroke:#000000; stroke-width:0.1500; stroke-opacity:1; 
stroke-linecap:round; stroke-linejoin:round;">
<path d="M261.0022 191.5072
L261.0022 198.0072
" />
<path style="fill:#000000; fill-opacity:1.0000; stroke:none;fill-rule:evenodd;"
d="M 237.3397,55.3357
242.1403,55.3357
242.1403,60.1363
237.3397,60.1363
Z" /> 
</g>
<g style="fill:#000000; fill-opacity:1.0000; stroke:none;">
<circle cx="239.7400" cy="51.6400" r="2.4003" /> 
</g>
<g style="fill:#000000; fill-opacity:1.0000; stroke:none;">
<circle cx="234.6600" cy="53.9260" r="2.4003" /> 
<path style="fill:#000000; fill-opacity:1.0000; stroke:none;fill-rule:evenodd;"
d="M 239.8560,91.7560
237.8240,91.7560
237.8240,89.7240
239.8560,89.7240
Z" /> 
</g>
<g style="fill:#000000; fill-opacity:1.0000; stroke:none;">
<circle cx="241.3800" cy="90.7400" r="1.0160" /> 
<circle cx="229.2980" cy="141.4100" r="1.0000" /> 
</g>
<g style="fill:#000000; fill-opacity:1.0000; stroke:none;">
<circle cx="231.7980" cy="141.4100" r="1.0000" /> 
</g>
<g style="fill:#000000; fill-opacity:1.0000; stroke:none;">
<circle cx="234.2980" cy="141.4100" r="1.0000" /> 
</g>
<g style="fill:#000000; fill-opacity:1.0000; stroke:none;">
<circle cx="234.2980" cy="138.9100" r="1.0000" /> 
</g>
<g style="fill:#000000; fill-opacity:1.0000; stroke:none;">
<circle cx="231.7980" cy="138.9100" r="1.0000" /> 
</g>
<g style="fill:#000000; fill-opacity:1.0000; stroke:none;">
<circle cx="229.2980" cy="138.9100" r="1.0000" /> 
</g>
<g style="fill:#000000; fill-opacity:1.0000; stroke:none;">
<circle cx="237.5480" cy="140.1600" r="1.5000" /> 
</g>
<g style="fill:#000000; fill-opacity:1.0000; stroke:none;">
<circle cx="226.0480" cy="140.1600" r="1.5000" /> 
<path style="fill:#000000; fill-opacity:1.0000; stroke:none;fill-rule:evenodd;"
d="M 181.0236,137.9560
179.2964,137.9560
179.2964,135.9240
181.0236,135.9240
Z" /> 
</g>
<g style="fill:none; 
stroke:#000000; stroke-width:1.7272; stroke-opacity:1; 
stroke-linecap:round; stroke-linejoin:round;">
<path d="M182.7000 137.0924
L182.7000 136.7876
" />
<path d="M185.2400 137.0924
L185.2400 136.7876
" />
<path d="M187.7800 137.0924
L187.7800 136.7876
" />
<path style="fill:#000000; fill-opacity:1.0000; stroke:none;fill-rule:evenodd;"
d="M 226.0830,85.0674
223.7970,85.0674
223.7970,83.4926
226.0830,83.4926
Z" /> 
</g>
<g style="fill:none; 
stroke:#000000; stroke-width:1.5748; stroke-opacity:1; 
stroke-linecap:round; stroke-linejoin:round;">
<path d="M224.5844 81.7400
L225.2956 81.7400
" />
<path d="M224.5844 79.2000
L225.2956 79.2000
" />
<path d="M224.5844 76.6600
L225.2956 76.6600
" />
<path d="M224.5844 74.1200
L225.2956 74.1200
" />
<path d="M224.5844 71.5800
L225.2956 71.5800
" />
<path d="M224.5844 69.0400
L225.2956 69.0400
" />
<path d="M224.5844 66.5000
L225.2956 66.5000
" />
<path d="M224.5844 63.9600
L225.2956 63.9600
" />
<path d="M224.5844 61.4200
L225.2956 61.4200
" />
<path d="M224.5844 58.8800
L225.2956 58.8800
" />
<path d="M224.5844 56.3400
L225.2956 56.3400
" />
<path d="M224.5844 53.8000
L225.2956 53.8000
" />
<path d="M224.5844 51.2600
L225.2956 51.2600
" />
<path d="M224.5844 48.7200
L225.2956 48.7200
" />
<path d="M209.3444 48.7200
L210.0556 48.7200
" />
<path d="M209.3444 51.2600
L210.0556 51.2600
" />
<path d="M209.3444 53.8000
L210.0556 53.8000
" />
<path d="M209.3444 56.3400
L210.0556 56.3400
" />
<path d="M209.3444 58.8800
L210.0556 58.8800
" />
<path d="M209.3444 61.4200
L210.0556 61.4200
" />
<path d="M209.3444 63.9600
L210.0556 63.9600
" />
<path d="M209.3444 66.5000
L210.0556 66.5000
" />
<path d="M209.3444 69.0400
L210.0556 69.0400
" />
<path d="M209.3444 71.5800
L210.0556 71.5800
" />
<path d="M209.3444 74.1200
L210.0556 74.1200
" />
<path d="M209.3444 76.6600
L210.0556 76.6600
" />
<path d="M209.3444 79.2000
L210.0556 79.2000
" />
<path d="M209.3444 81.7400
L210.0556 81.7400
" />
<path d="M209.3444 84.2800
L210.0556 84.2800
" />
<path style="fill:#000000; fill-opacity:1.0000; stroke:none;fill-rule:evenodd;"
d="M 231.0360,83.4164
231.0360,85.1436
229.0040,85.1436
229.0040,83.4164
Z" /> 
</g>
<g style="fill:none; 
stroke:#000000; stroke-width:1.7272; stroke-opacity:1; 
stroke-linecap:round; stroke-linejoin:round;">
<path d="M230.1724 81.7400
L229.8676 81.7400
" />
<path d="M230.1724 79.2000
L229.8676 79.2000
" />
<path d="M230.1724 76.6600
L229.8676 76.6600
" />
<path d="M230.1724 74.1200
L229.8676 74.1200
" />
<path d="M230.1724 71.5800
L229.8676 71.5800
" />
<path d="M230.1724 69.0400
L229.8676 69.0400
" />
<path d="M230.1724 66.5000
L229.8676 66.5000
" />
<path d="M230.1724 63.9600
L229.8676 63.9600
" />
<path d="M230.1724 61.4200
L229.8676 61.4200
" />
<path d="M230.1724 58.8800
L229.8676 58.8800
" />
<path d="M230.1724 56.3400
L229.8676 56.3400
" />
<path d="M230.1724 53.8000
L229.8676 53.8000
" />
<path d="M230.1724 51.2600
L229.8676 51.2600
" />
<path d="M230.1724 48.7200
L229.8676 48.7200
" />
<path style="fill:#000000; fill-opacity:1.0000; stroke:none;fill-rule:evenodd;"
d="M 202.3340,49.5836
202.3340,47.8564
204.3660,47.8564
204.3660,49.5836
Z" /> 
</g>
<g style="fill:none; 
stroke:#000000; stroke-width:1.7272; stroke-opacity:1; 
stroke-linecap:round; stroke-linejoin:round;">
<path d="M203.1976 51.2600
L203.5024 51.2600
" />
<path d="M203.1976 53.8000
L203.5024 53.8000
" />
<path d="M203.1976 56.3400
L203.5024 56.3400
" />
<path d="M203.1976 58.8800
L203.5024 58.8800
" />
<path d="M203.1976 61.4200
L203.5024 61.4200
" />
<path d="M203.1976 63.9600
L203.5024 63.9600
" />
<path d="M203.1976 66.5000
L203.5024 66.5000
" />
<path d="M203.1976 69.0400
L203.5024 69.0400
" />
<path d="M203.1976 71.5800
L203.5024 71.5800
" />
<path d="M203.1976 74.1200
L203.5024 74.1200
" />
<path d="M203.1976 76.6600
L203.5024 76.6600
" />
<path d="M203.1976 79.2000
L203.5024 79.2000
" />
<path d="M203.1976 81.7400
L203.5024 81.7400
" />
<path d="M203.1976 84.2800
L203.5024 84.2800
" />
<path style="fill:#000000; fill-opacity:1.0000; stroke:none;fill-rule:evenodd;"
d="M 171.1936,56.7210
169.4664,56.7210
169.4664,54.6890
171.1936,54.6890
Z" /> 
</g>
<g style="fill:none; 
stroke:#000000; stroke-width:1.7272; stroke-opacity:1; 
stroke-linecap:round; stroke-linejoin:round;">
<path d="M172.8700 55.8574
L172.8700 55.5526
" />
<path d="M175.4100 55.8574
L175.4100 55.5526
" />
<path style="fill:#000000; fill-opacity:1.0000; stroke:none;fill-rule:evenodd;"
d="M 157.2236,56.7210
155.4964,56.7210
155.4964,54.6890
157.2236,54.6890
Z" /> 
</g>
<g style="fill:none; 
stroke:#000000; stroke-width:1.7272; stroke-opacity:1; 
stroke-linecap:round; stroke-linejoin:round;">
<path d="M158.9000 55.8574
L158.9000 55.5526
" />
<path d="M161.4400 55.8574
L161.4400 55.5526
" />
<path style="fill:#000000; fill-opacity:1.0000; stroke:none;fill-rule:evenodd;"
d="M 178.9914,110.0864
180.7186,110.0864
180.7186,111.8136
178.9914,111.8136
Z" /> 
</g>
<g style="fill:#000000; fill-opacity:1.0000; stroke:none;">
<circle cx="179.8550" cy="113.4900" r="0.8636" /> 
<circle cx="177.3150" cy="110.9500" r="0.8636" /> 
<circle cx="177.3150" cy="113.4900" r="0.8636" /> 
<circle cx="174.7750" cy="110.9500" r="0.8636" /> 
<circle cx="174.7750" cy="113.4900" r="0.8636" /> 
<circle cx="172.2350" cy="110.9500" r="0.8636" /> 
<circle cx="172.2350" cy="113.4900" r="0.8636" /> 
<circle cx="169.6950" cy="110.9500" r="0.8636" /> 
<circle cx="169.6950" cy="113.4900" r="0.8636" /> 
<circle cx="167.1550" cy="110.9500" r="0.8636" /> 
<circle cx="167.1550" cy="113.4900" r="0.8636" /> 
<circle cx="164.6150" cy="110.9500" r="0.8636" /> 
<circle cx="164.6150" cy="113.4900" r="0.8636" /> 
<circle cx="162.0750" cy="110.9500" r="0.8636" /> 
<circle cx="162.0750" cy="113.4900" r="0.8636" /> 
<path style="fill:#000000; fill-opacity:1.0000; stroke:none;fill-rule:evenodd;"
d="M 180.8764,76.8836
180.8764,75.1564
182.6036,75.1564
182.6036,76.8836
Z" /> 
<circle cx="184.2800" cy="76.0200" r="0.8636" /> 
<circle cx="181.7400" cy="78.5600" r="0.8636" /> 
<circle cx="184.2800" cy="78.5600" r="0.8636" /> 
<circle cx="181.7400" cy="81.1000" r="0.8636" /> 
<circle cx="184.2800" cy="81.1000" r="0.8636" /> 
<circle cx="181.7400" cy="83.6400" r="0.8636" /> 
<circle cx="184.2800" cy="83.6400" r="0.8636" /> 
<circle cx="181.7400" cy="86.1800" r="0.8636" /> 
<circle cx="184.2800" cy="86.1800" r="0.8636" /> 
<circle cx="181.7400" cy="88.7200" r="0.8636" /> 
<circle cx="184.2800" cy="88.7200" r="0.8636" /> 
<path style="fill:#000000; fill-opacity:1.0000; stroke:none;fill-rule:evenodd;"
d="M 154.0740,114.6560
154.0740,112.6240
156.1060,112.6240
156.1060,114.6560
Z" /> 
<circle cx="155.0900" cy="116.1800" r="1.0160" /> 
<path style="fill:#000000; fill-opacity:1.0000; stroke:none;fill-rule:evenodd;"
d="M 203.7240,107.3160
203.7240,105.2840
205.7560,105.2840
205.7560,107.3160
Z" /> 
<circle cx="204.7400" cy="108.8400" r="1.0160" /> 
<path style="fill:#000000; fill-opacity:1.0000; stroke:none;fill-rule:evenodd;"
d="M 240.2240,114.6160
240.2240,112.5840
242.2560,112.5840
242.2560,114.6160
Z" /> 
<circle cx="241.2400" cy="116.1400" r="1.0160" /> 
<circle cx="220.9600" cy="119.5550" r="0.6500" /> 
</g>
<g style="fill:#000000; fill-opacity:1.0000; stroke:none;">
<circle cx="220.9600" cy="113.8400" r="0.6500" /> 
</g>
<g style="fill:#000000; fill-opacity:1.0000; stroke:none;">
<circle cx="213.3400" cy="119.5550" r="0.6500" /> 
</g>
<g style="fill:#000000; fill-opacity:1.0000; stroke:none;">
<circle cx="213.3400" cy="113.8400" r="0.6500" /> 
</g>
<g style="fill:#000000; fill-opacity:1.0000; stroke:none;">
<circle cx="172.7400" cy="48.1400" r="1.2700" /> 
</g>
<g style="fill:#000000; fill-opacity:1.0000; stroke:none;">
<circle cx="170.2000" cy="45.6000" r="1.0000" /> 
</g>
<g style="fill:#000000; fill-opacity:1.0000; stroke:none;">
<circle cx="175.2800" cy="45.6000" r="1.0000" /> 
</g>
<g style="fill:#000000; fill-opacity:1.0000; stroke:none;">
<circle cx="170.2000" cy="50.6800" r="1.0000" /> 
</g>
<g style="fill:#000000; fill-opacity:1.0000; stroke:none;">
<circle cx="175.2800" cy="50.6800" r="1.0000" /> 
</g>
<g style="fill:#000000; fill-opacity:1.0000; stroke:none;">
<circle cx="158.9900" cy="48.1400" r="1.2700" /> 
</g>
<g style="fill:#000000; fill-opacity:1.0000; stroke:none;">
<circle cx="156.4500" cy="45.6000" r="1.0000" /> 
</g>
<g style="fill:#000000; fill-opacity:1.0000; stroke:none;">
<circle cx="161.5300" cy="45.6000" r="1.0000" /> 
</g>
<g style="fill:#000000; fill-opacity:1.0000; stroke:none;">
<circle cx="156.4500" cy="50.6800" r="1.0000" /> 
</g>
<g style="fill:#000000; fill-opacity:1.0000; stroke:none;">
<circle cx="161.5300" cy="50.6800" r="1.0000" /> 
<path style="fill:#000000; fill-opacity:1.0000; stroke:none;fill-rule:evenodd;"
d="M 238.9164,70.2364
240.6436,70.2364
240.6436,71.9636
238.9164,71.9636
Z" /> 
</g>
<g style="fill:#000000; fill-opacity:1.0000; stroke:none;">
<circle cx="239.7800" cy="73.6400" r="0.8636" /> 
<circle cx="237.2400" cy="71.1000" r="0.8636" /> 
<circle cx="237.2400" cy="73.6400" r="0.8636" /> 
<path style="fill:#000000; fill-opacity:1.0000; stroke:none;fill-rule:evenodd;"
d="M 183.2240,65.4636
183.2240,63.7364
185.2560,63.7364
185.2560,65.4636
Z" /> 
</g>
<g style="fill:none; 
stroke:#000000; stroke-width:1.7272; stroke-opacity:1; 
stroke-linecap:round; stroke-linejoin:round;">
<path d="M184.0876 67.1400
L184.3924 67.1400
" />
<path d="M184.0876 69.6800
L184.3924 69.6800
" />
<path d="M184.0876 72.2200
L184.3924 72.2200
" />
<path style="fill:#000000; fill-opacity:1.0000; stroke:none;fill-rule:evenodd;"
d="M 179.5750,134.1850
179.5750,133.4350
180.7750,133.4350
180.7750,134.1850
Z" /> 
<path style="fill:#000000; fill-opacity:1.0000; stroke:none;fill-rule:evenodd;"
d="M 181.4750,134.1850
181.4750,133.4350
182.6750,133.4350
182.6750,134.1850
Z" /> 
<path style="fill:#000000; fill-opacity:1.0000; stroke:none;fill-rule:evenodd;"
d="M 227.8550,135.6900
227.1050,135.6900
227.1050,134.4900
227.8550,134.4900
Z" /> 
<path style="fill:#000000; fill-opacity:1.0000; stroke:none;fill-rule:evenodd;"
d="M 227.8550,133.7900
227.1050,133.7900
227.1050,132.5900
227.8550,132.5900
Z" /> 
<path style="fill:#000000; fill-opacity:1.0000; stroke:none;fill-rule:evenodd;"
d="M 177.5750,116.3850
178.3250,116.3850
178.3250,117.5850
177.5750,117.5850
Z" /> 
<path style="fill:#000000; fill-opacity:1.0000; stroke:none;fill-rule:evenodd;"
d="M 177.5750,118.2850
178.3250,118.2850
178.3250,119.4850
177.5750,119.4850
Z" /> 
<path style="fill:#000000; fill-opacity:1.0000; stroke:none;fill-rule:evenodd;"
d="M 173.7650,116.3850
174.5150,116.3850
174.5150,117.5850
173.7650,117.5850
Z" /> 
<path style="fill:#000000; fill-opacity:1.0000; stroke:none;fill-rule:evenodd;"
d="M 173.7650,118.2850
174.5150,118.2850
174.5150,119.4850
173.7650,119.4850
Z" /> 
<path style="fill:#000000; fill-opacity:1.0000; stroke:none;fill-rule:evenodd;"
d="M 171.8600,116.3850
172.6100,116.3850
172.6100,117.5850
171.8600,117.5850
Z" /> 
<path style="fill:#000000; fill-opacity:1.0000; stroke:none;fill-rule:evenodd;"
d="M 171.8600,118.2850
172.6100,118.2850
172.6100,119.4850
171.8600,119.4850
Z" /> 
<path style="fill:#000000; fill-opacity:1.0000; stroke:none;fill-rule:evenodd;"
d="M 169.9550,116.3850
170.7050,116.3850
170.7050,117.5850
169.9550,117.5850
Z" /> 
<path style="fill:#000000; fill-opacity:1.0000; stroke:none;fill-rule:evenodd;"
d="M 169.9550,118.2850
170.7050,118.2850
170.7050,119.4850
169.9550,119.4850
Z" /> 
<path style="fill:#000000; fill-opacity:1.0000; stroke:none;fill-rule:evenodd;"
d="M 168.0500,116.3850
168.8000,116.3850
168.8000,117.5850
168.0500,117.5850
Z" /> 
<path style="fill:#000000; fill-opacity:1.0000; stroke:none;fill-rule:evenodd;"
d="M 168.0500,118.2850
168.8000,118.2850
168.8000,119.4850
168.0500,119.4850
Z" /> 
<path style="fill:#000000; fill-opacity:1.0000; stroke:none;fill-rule:evenodd;"
d="M 166.1450,116.3850
166.8950,116.3850
166.8950,117.5850
166.1450,117.5850
Z" /> 
<path style="fill:#000000; fill-opacity:1.0000; stroke:none;fill-rule:evenodd;"
d="M 166.1450,118.2850
166.8950,118.2850
166.8950,119.4850
166.1450,119.4850
Z" /> 
<path style="fill:#000000; fill-opacity:1.0000; stroke:none;fill-rule:evenodd;"
d="M 164.2400,116.3850
164.9900,116.3850
164.9900,117.5850
164.2400,117.5850
Z" /> 
<path style="fill:#000000; fill-opacity:1.0000; stroke:none;fill-rule:evenodd;"
d="M 164.2400,118.2850
164.9900,118.2850
164.9900,119.4850
164.2400,119.4850
Z" /> 
<path style="fill:#000000; fill-opacity:1.0000; stroke:none;fill-rule:evenodd;"
d="M 175.7650,121.4850
175.7650,120.7350
176.9650,120.7350
176.9650,121.4850
Z" /> 
<path style="fill:#000000; fill-opacity:1.0000; stroke:none;fill-rule:evenodd;"
d="M 177.6650,121.4850
177.6650,120.7350
178.8650,120.7350
178.8650,121.4850
Z" /> 
<path style="fill:#000000; fill-opacity:1.0000; stroke:none;fill-rule:evenodd;"
d="M 171.9550,121.4850
171.9550,120.7350
173.1550,120.7350
173.1550,121.4850
Z" /> 
<path style="fill:#000000; fill-opacity:1.0000; stroke:none;fill-rule:evenodd;"
d="M 173.8550,121.4850
173.8550,120.7350
175.0550,120.7350
175.0550,121.4850
Z" /> 
<path style="fill:#000000; fill-opacity:1.0000; stroke:none;fill-rule:evenodd;"
d="M 167.5100,121.4850
167.5100,120.7350
168.7100,120.7350
168.7100,121.4850
Z" /> 
<path style="fill:#000000; fill-opacity:1.0000; stroke:none;fill-rule:evenodd;"
d="M 169.4100,121.4850
169.4100,120.7350
170.6100,120.7350
170.6100,121.4850
Z" /> 
<path style="fill:#000000; fill-opacity:1.0000; stroke:none;fill-rule:evenodd;"
d="M 163.7000,121.4850
163.7000,120.7350
164.9000,120.7350
164.9000,121.4850
Z" /> 
<path style="fill:#000000; fill-opacity:1.0000; stroke:none;fill-rule:evenodd;"
d="M 165.6000,121.4850
165.6000,120.7350
166.8000,120.7350
166.8000,121.4850
Z" /> 
<path style="fill:#000000; fill-opacity:1.0000; stroke:none;fill-rule:evenodd;"
d="M 171.3200,131.0100
171.3200,130.2600
172.5200,130.2600
172.5200,131.0100
Z" /> 
<path style="fill:#000000; fill-opacity:1.0000; stroke:none;fill-rule:evenodd;"
d="M 173.2200,131.0100
173.2200,130.2600
174.4200,130.2600
174.4200,131.0100
Z" /> 
<path style="fill:#000000; fill-opacity:1.0000; stroke:none;fill-rule:evenodd;"
d="M 174.4200,128.3550
174.4200,129.1050
173.2200,129.1050
173.2200,128.3550
Z" /> 
<path style="fill:#000000; fill-opacity:1.0000; stroke:none;fill-rule:evenodd;"
d="M 172.5200,128.3550
172.5200,129.1050
171.3200,129.1050
171.3200,128.3550
Z" /> 
<path style="fill:#000000; fill-opacity:1.0000; stroke:none;fill-rule:evenodd;"
d="M 167.5100,129.1050
167.5100,128.3550
168.7100,128.3550
168.7100,129.1050
Z" /> 
<path style="fill:#000000; fill-opacity:1.0000; stroke:none;fill-rule:evenodd;"
d="M 169.4100,129.1050
169.4100,128.3550
170.6100,128.3550
170.6100,129.1050
Z" /> 
<path style="fill:#000000; fill-opacity:1.0000; stroke:none;fill-rule:evenodd;"
d="M 159.7950,126.5450
160.5450,126.5450
160.5450,127.7450
159.7950,127.7450
Z" /> 
<path style="fill:#000000; fill-opacity:1.0000; stroke:none;fill-rule:evenodd;"
d="M 159.7950,128.4450
160.5450,128.4450
160.5450,129.6450
159.7950,129.6450
Z" /> 
<path style="fill:#000000; fill-opacity:1.0000; stroke:none;fill-rule:evenodd;"
d="M 178.1150,82.1900
177.3650,82.1900
177.3650,80.9900
178.1150,80.9900
Z" /> 
<path style="fill:#000000; fill-opacity:1.0000; stroke:none;fill-rule:evenodd;"
d="M 178.1150,80.2900
177.3650,80.2900
177.3650,79.0900
178.1150,79.0900
Z" /> 
<path style="fill:#000000; fill-opacity:1.0000; stroke:none;fill-rule:evenodd;"
d="M 219.3650,105.7400
220.1150,105.7400
220.1150,106.9400
219.3650,106.9400
Z" /> 
<path style="fill:#000000; fill-opacity:1.0000; stroke:none;fill-rule:evenodd;"
d="M 219.3650,107.6400
220.1150,107.6400
220.1150,108.8400
219.3650,108.8400
Z" /> 
<path style="fill:#000000; fill-opacity:1.0000; stroke:none;fill-rule:evenodd;"
d="M 214.2650,105.3900
215.0150,105.3900
215.0150,106.5900
214.2650,106.5900
Z" /> 
<path style="fill:#000000; fill-opacity:1.0000; stroke:none;fill-rule:evenodd;"
d="M 214.2650,107.2900
215.0150,107.2900
215.0150,108.4900
214.2650,108.4900
Z" /> 
<path style="fill:#000000; fill-opacity:1.0000; stroke:none;fill-rule:evenodd;"
d="M 163.6050,104.0050
164.3550,104.0050
164.3550,105.2050
163.6050,105.2050
Z" /> 
<path style="fill:#000000; fill-opacity:1.0000; stroke:none;fill-rule:evenodd;"
d="M 163.6050,105.9050
164.3550,105.9050
164.3550,107.1050
163.6050,107.1050
Z" /> 
<path style="fill:#000000; fill-opacity:1.0000; stroke:none;fill-rule:evenodd;"
d="M 154.2900,82.7150
154.2900,81.9650
155.4900,81.9650
155.4900,82.7150
Z" /> 
<path style="fill:#000000; fill-opacity:1.0000; stroke:none;fill-rule:evenodd;"
d="M 156.1900,82.7150
156.1900,81.9650
157.3900,81.9650
157.3900,82.7150
Z" /> 
<path style="fill:#000000; fill-opacity:1.0000; stroke:none;fill-rule:evenodd;"
d="M 170.1150,82.6900
169.3650,82.6900
169.3650,81.4900
170.1150,81.4900
Z" /> 
<path style="fill:#000000; fill-opacity:1.0000; stroke:none;fill-rule:evenodd;"
d="M 170.1150,80.7900
169.3650,80.7900
169.3650,79.5900
170.1150,79.5900
Z" /> 
<path style="fill:#000000; fill-opacity:1.0000; stroke:none;fill-rule:evenodd;"
d="M 188.7900,53.6150
188.7900,52.8650
189.9900,52.8650
189.9900,53.6150
Z" /> 
<path style="fill:#000000; fill-opacity:1.0000; stroke:none;fill-rule:evenodd;"
d="M 190.6900,53.6150
190.6900,52.8650
191.8900,52.8650
191.8900,53.6150
Z" /> 
<path style="fill:#000000; fill-opacity:1.0000; stroke:none;fill-rule:evenodd;"
d="M 193.1900,56.5150
193.1900,55.7650
194.3900,55.7650
194.3900,56.5150
Z" /> 
<path style="fill:#000000; fill-opacity:1.0000; stroke:none;fill-rule:evenodd;"
d="M 195.0900,56.5150
195.0900,55.7650
196.2900,55.7650
196.2900,56.5150
Z" /> 
<path style="fill:#000000; fill-opacity:1.0000; stroke:none;fill-rule:evenodd;"
d="M 193.2400,54.9150
193.2400,54.1650
194.4400,54.1650
194.4400,54.9150
Z" /> 
<path style="fill:#000000; fill-opacity:1.0000; stroke:none;fill-rule:evenodd;"
d="M 195.1400,54.9150
195.1400,54.1650
196.3400,54.1650
196.3400,54.9150
Z" /> 
<path style="fill:#000000; fill-opacity:1.0000; stroke:none;fill-rule:evenodd;"
d="M 191.8400,55.7650
191.8400,56.5150
190.6400,56.5150
190.6400,55.7650
Z" /> 
<path style="fill:#000000; fill-opacity:1.0000; stroke:none;fill-rule:evenodd;"
d="M 189.9400,55.7650
189.9400,56.5150
188.7400,56.5150
188.7400,55.7650
Z" /> 
<path style="fill:#000000; fill-opacity:1.0000; stroke:none;fill-rule:evenodd;"
d="M 187.8400,57.2650
187.8400,58.0150
186.6400,58.0150
186.6400,57.2650
Z" /> 
<path style="fill:#000000; fill-opacity:1.0000; stroke:none;fill-rule:evenodd;"
d="M 185.9400,57.2650
185.9400,58.0150
184.7400,58.0150
184.7400,57.2650
Z" /> 
<path style="fill:#000000; fill-opacity:1.0000; stroke:none;fill-rule:evenodd;"
d="M 243.2400,67.2650
243.2400,68.0150
242.0400,68.0150
242.0400,67.2650
Z" /> 
<path style="fill:#000000; fill-opacity:1.0000; stroke:none;fill-rule:evenodd;"
d="M 241.3400,67.2650
241.3400,68.0150
240.1400,68.0150
240.1400,67.2650
Z" /> 
<path style="fill:#000000; fill-opacity:1.0000; stroke:none;fill-rule:evenodd;"
d="M 237.1900,77.0150
237.1900,76.2650
238.3900,76.2650
238.3900,77.0150
Z" /> 
<path style="fill:#000000; fill-opacity:1.0000; stroke:none;fill-rule:evenodd;"
d="M 239.0900,77.0150
239.0900,76.2650
240.2900,76.2650
240.2900,77.0150
Z" /> 
<path style="fill:#000000; fill-opacity:1.0000; stroke:none;fill-rule:evenodd;"
d="M 194.1900,78.0150
194.1900,77.2650
195.3900,77.2650
195.3900,78.0150
Z" /> 
<path style="fill:#000000; fill-opacity:1.0000; stroke:none;fill-rule:evenodd;"
d="M 196.0900,78.0150
196.0900,77.2650
197.2900,77.2650
197.2900,78.0150
Z" /> 
<path style="fill:#000000; fill-opacity:1.0000; stroke:none;fill-rule:evenodd;"
d="M 192.1150,72.1400
191.3650,72.1400
191.3650,70.9400
192.1150,70.9400
Z" /> 
<path style="fill:#000000; fill-opacity:1.0000; stroke:none;fill-rule:evenodd;"
d="M 192.1150,70.2400
191.3650,70.2400
191.3650,69.0400
192.1150,69.0400
Z" /> 
<path style="fill:#000000; fill-opacity:1.0000; stroke:none;fill-rule:evenodd;"
d="M 230.9150,132.2600
231.6650,132.2600
231.6650,133.4600
230.9150,133.4600
Z" /> 
<path style="fill:#000000; fill-opacity:1.0000; stroke:none;fill-rule:evenodd;"
d="M 230.9150,134.1600
231.6650,134.1600
231.6650,135.3600
230.9150,135.3600
Z" /> 
<path style="fill:#000000; fill-opacity:1.0000; stroke:none;fill-rule:evenodd;"
d="M 233.4550,132.2600
234.2050,132.2600
234.2050,133.4600
233.4550,133.4600
Z" /> 
<path style="fill:#000000; fill-opacity:1.0000; stroke:none;fill-rule:evenodd;"
d="M 233.4550,134.1600
234.2050,134.1600
234.2050,135.3600
233.4550,135.3600
Z" /> 
<path style="fill:#000000; fill-opacity:1.0000; stroke:none;fill-rule:evenodd;"
d="M 191.8400,51.1900
191.8400,52.0900
190.6400,52.0900
190.6400,51.1900
Z" /> 
<path style="fill:#000000; fill-opacity:1.0000; stroke:none;fill-rule:evenodd;"
d="M 189.6400,51.1900
189.6400,52.0900
188.4400,52.0900
188.4400,51.1900
Z" /> 
<path style="fill:#000000; fill-opacity:1.0000; stroke:none;fill-rule:evenodd;"
d="M 175.6700,116.3850
176.4200,116.3850
176.4200,117.5850
175.6700,117.5850
Z" /> 
<path style="fill:#000000; fill-opacity:1.0000; stroke:none;fill-rule:evenodd;"
d="M 175.6700,118.2850
176.4200,118.2850
176.4200,119.4850
175.6700,119.4850
Z" /> 
<path style="fill:#000000; fill-opacity:1.0000; stroke:none;fill-rule:evenodd;"
d="M 168.1011,133.9256
168.1011,132.4244
171.1009,132.4244
171.1009,133.9256
Z" /> 
<path style="fill:#000000; fill-opacity:1.0000; stroke:none;fill-rule:evenodd;"
d="M 172.0991,133.9256
172.0991,132.4244
175.0988,132.4244
175.0988,133.9256
Z" /> 
<path style="fill:#000000; fill-opacity:1.0000; stroke:none;fill-rule:evenodd;"
d="M 166.8311,127.5756
166.8311,126.0744
169.8309,126.0744
169.8309,127.5756
Z" /> 
<path style="fill:#000000; fill-opacity:1.0000; stroke:none;fill-rule:evenodd;"
d="M 170.8291,127.5756
170.8291,126.0744
173.8288,126.0744
173.8288,127.5756
Z" /> 
<path style="fill:#000000; fill-opacity:1.0000; stroke:none;fill-rule:evenodd;"
d="M 174.8650,104.0050
175.6150,104.0050
175.6150,105.2050
174.8650,105.2050
Z" /> 
<path style="fill:#000000; fill-opacity:1.0000; stroke:none;fill-rule:evenodd;"
d="M 174.8650,105.9050
175.6150,105.9050
175.6150,107.1050
174.8650,107.1050
Z" /> 
<path style="fill:#000000; fill-opacity:1.0000; stroke:none;fill-rule:evenodd;"
d="M 180.6900,51.5150
180.6900,50.7650
181.8900,50.7650
181.8900,51.5150
Z" /> 
<path style="fill:#000000; fill-opacity:1.0000; stroke:none;fill-rule:evenodd;"
d="M 182.5900,51.5150
182.5900,50.7650
183.7900,50.7650
183.7900,51.5150
Z" /> 
<path style="fill:#000000; fill-opacity:1.0000; stroke:none;fill-rule:evenodd;"
d="M 236.2400,67.2650
236.2400,68.0150
235.0400,68.0150
235.0400,67.2650
Z" /> 
<path style="fill:#000000; fill-opacity:1.0000; stroke:none;fill-rule:evenodd;"
d="M 234.3400,67.2650
234.3400,68.0150
233.1400,68.0150
233.1400,67.2650
Z" /> 
<path style="fill:#000000; fill-opacity:1.0000; stroke:none;fill-rule:evenodd;"
d="M 196.2900,66.2650
196.2900,67.0150
195.0900,67.0150
195.0900,66.2650
Z" /> 
<path style="fill:#000000; fill-opacity:1.0000; stroke:none;fill-rule:evenodd;"
d="M 194.3900,66.2650
194.3900,67.0150
193.1900,67.0150
193.1900,66.2650
Z" /> 
<path style="fill:#000000; fill-opacity:1.0000; stroke:none;fill-rule:evenodd;"
d="M 236.2400,66.0150
236.2400,65.2650
237.4400,65.2650
237.4400,66.0150
Z" /> 
<path style="fill:#000000; fill-opacity:1.0000; stroke:none;fill-rule:evenodd;"
d="M 238.1400,66.0150
238.1400,65.2650
239.3400,65.2650
239.3400,66.0150
Z" /> 
</g>
<g style="fill:none; 
stroke:#000000; stroke-width:0.1000; stroke-opacity:1; 
stroke-linecap:round; stroke-linejoin:round;">
<path d="M148.7400 143.6400
L148.7400 43.6400
" />
<path d="M248.7400 43.6400
L248.7400 143.6400
" />
<path d="M248.7400 143.6400
L148.7400 143.6400
" />
<path d="M148.7400 43.6400
L248.7400 43.6400
" />
<circle cx="183.0300" cy="40.4650" r="1.6667" /> 
<path d="M180.5300 40.4650
L185.5300 40.4650
" />
<path d="M183.0300 37.9650
L183.0300 42.9650
" />
</g> 
</svg>
